<?xml version="1.0" encoding="UTF-8"?><svg id="a" xmlns="http://www.w3.org/2000/svg" viewBox="0 0 61.78 61.87"><path d="M61.49,40.44c-1.44-6.92-8.08-11.36-14.9-10.19-4.93,.85-8.31,3.74-10.18,8.38-.17,.42-.37,.45-.78,.45-1.13,0-1.9-.66-2.67-1.32-.64-.55-1.27-.8-2.12-.12,.07-.57-.04-1.16,.19-1.39,.56-.52,1.24-1.01,1.97-1.24,.81-.25,1.61-.53,1.89-1.3,.33-.92,.92-.97,1.68-.89,.17,.02,.35,0,.53,0,1.95,0,3.2-1.24,3.22-3.19,0-.86,0-1.72,0-2.57,1.89-.62,2.88-1.69,2.94-3.22,.04-1.17,.04-2.35,0-3.53-.05-1.47-1.14-2.79-2.56-3.12-.4-.09-.82-.08-1.25-.12v-1.79h6.49c0,1.05,.01,2.05,0,3.04-.01,.56,.12,1.03,.67,1.25,.54,.22,.97,0,1.37-.4,.77-.77,1.65-1.44,2.34-2.27,1.1-1.34,2.41-1.99,4.15-1.68,.15,.03,.31,0,.46,0,1.88-.13,3.25-1.44,3.28-3.28,.04-2.9,.04-5.81,0-8.72-.03-1.75-1.5-3.14-3.24-3.14-5.81-.01-11.62-.01-17.44,0-1.79,0-3.24,1.48-3.28,3.27,0,.27,0,.54,0,.85C28.71-.22,22.76-1.34,16.46,1.74c-6.28,3.07-9.09,8.46-9.04,15.37-2.35,.12-3.73,1.31-3.8,3.29-.04,1.11-.05,2.22,0,3.33,.1,1.89,1.6,3.38,3.4,3.28,.93-.05,1.86-.01,2.8-.01,.06,.21,.12,.37,.17,.54,.81,3.31,2.54,6.04,5.27,8.07,.75,.56,.8,1.14,.68,1.97-.74-.62-1.35-.4-1.94,.13-.87,.78-1.81,1.39-3.05,1.41-.57,0-1.14,.15-1.7,.26C3.89,40.5,.01,45.26,0,50.72,0,53.98,0,57.24,0,60.5c0,1.03,.33,1.37,1.33,1.37,14.73,0,29.46,0,44.19,0,1,0,1.34-.35,1.34-1.37,0-1.44,0-2.88,0-4.2,1.39-.07,2.73,0,4.02-.22,7.42-1.32,12.13-8.26,10.6-15.64m-29.64-.77q1.22,.85,.71,2.18c-.75,1.95-1.5,3.91-2.27,5.9-1.64-.82-3.24-1.61-4.92-2.45,2.2-1.91,4.34-3.78,6.48-5.64m-8.41,4.44c-1.3-1.12-2.55-2.21-3.8-3.29-.07-.06-.12-.13-.2-.18-1.27-.73-1.62-1.83-1.23-3.26,3.49,1.43,6.98,1.41,10.56,0,0,.67,.01,1.25,0,1.84,0,.14-.07,.31-.17,.4-1.7,1.49-3.4,2.97-5.14,4.48m8.27-11.27h-.86c-.49,0-.97-.01-1.46,0-.52,.02-.76-.18-.77-.73-.03-1.51-.04-1.51,1.46-1.51,.77,0,1.55,0,2.32,0,.51,0,.77,.17,.78,.73,.02,1.5,.04,1.5-1.46,1.5m6.36-2.83c-.02,.22-.4,.53-.66,.59-.44,.1-.92,.03-1.42,.03,.39-1.2,.76-2.36,1.17-3.61h.94c0,1.02,.04,2.01-.03,2.99m1.9-10.74c.67,.02,1.13,.52,1.16,1.3,.04,1,.05,2,0,2.99-.04,.89-.53,1.29-1.43,1.3-.77,0-1.55,0-2.37,0v-5.59c.91,0,1.77-.02,2.63,0m-3.61-15.48c0-1.12,.45-1.58,1.57-1.58,5.52,0,11.05,0,16.57,0,1.12,0,1.56,.46,1.57,1.58,0,2.57,0,5.15,0,7.72,0,1.07-.42,1.5-1.48,1.51-.84,0-1.69-.06-2.53,.02-.47,.05-1,.24-1.35,.53-.88,.74-1.67,1.57-2.63,2.5,0-.64,0-1.1,0-1.56,0-1.12-.35-1.48-1.46-1.48-2.68,0-5.37,0-8.05,0-2.01,0-2.2-.19-2.2-2.19,0-2.35,0-4.7,0-7.05M9.56,24.84c-.95,0-1.93,.07-2.88-.03-.66-.07-.9-.7-.93-1.29-.04-.97-.05-1.95,0-2.92,.05-.93,.53-1.33,1.47-1.33,.77,0,1.54,0,2.34,0v5.57Zm.05-7.71c-.13-2.45,.27-4.75,1.29-6.94,2.32-4.97,7.5-8.17,12.94-7.96,3.91,.16,7.19,1.71,9.84,4.59,.38,.41,.57,.84,.54,1.42-.04,1.2-.02,2.4-.01,3.59,.01,1.56,.96,2.85,2.46,3.23,.48,.12,.6,.34,.59,.76-.01,.4,0,.8,0,1.25-4.59,.29-8.89-.4-12.83-2.76-.72-.43-1.29-.44-2.01,0-3.07,1.84-6.42,2.72-9.98,2.8-.93,.02-1.85,0-2.83,0m2.31,8.98c-.33-2.22-.2-4.51-.28-6.85,2.64,.05,5.08-.26,7.42-1.08,1.33-.47,2.6-1.11,3.91-1.65,.25-.1,.62-.17,.83-.05,3.44,1.85,7.1,2.81,11.02,2.78,.08,0,.17,.02,.35,.04-.15,3.21,.43,6.47-.89,9.6-1.78-.79-3.63-.4-5.44-.4-1.29,0-2.27,1.16-2.34,2.46-.02,.4-.02,.8-.01,1.2,.02,1.43,.56,2.19,1.9,2.71,.08,.03,.15,.08,.29,.17-1.94,.95-3.91,1.37-6.01,1.22-5.33-.38-9.9-4.52-10.73-10.15m2.44,14.02c.21-.12,.39-.29,.64-.47,2.14,1.86,4.29,3.73,6.49,5.64-1.66,.83-3.26,1.62-4.92,2.45-.48-1.26-.95-2.49-1.42-3.72-.36-.95-.68-1.92-1.11-2.84-.24-.52-.14-.81,.32-1.07m30.35,19.56h-5.84v-.61c0-1.49,0-2.97,0-4.46,0-.82-.42-1.29-1.11-1.27-.66,.02-1.03,.46-1.03,1.27,0,1.46,0,2.93,0,4.39v.69H10.11v-2.57c0-.84,0-1.69,0-2.53,0-.79-.4-1.25-1.06-1.26-.67-.01-1.08,.43-1.08,1.22-.01,1.68,0,3.37,0,5.11H2.15c0-.21-.03-.43-.03-.64,0-2.73,0-5.46,0-8.18,.01-4.85,3.5-8.84,8.33-9.51q1.25-.17,1.7,1.01c.89,2.31,1.78,4.62,2.67,6.93,.41,1.07,.94,1.28,1.95,.77,2.04-1.01,4.08-2.02,6.11-3.06,.37-.19,.67-.2,1.05,0,2.03,1.03,4.07,2.04,6.11,3.06,1.02,.51,1.53,.31,1.95-.76,.97-2.52,1.94-5.03,2.9-7.55,.13-.34,.24-.7,.81-.42-.33,1.94-.17,3.83,.42,5.66,1.31,4.07,3.98,6.89,7.96,8.45,.47,.18,.65,.38,.63,.89-.04,1.1-.01,2.21-.01,3.36m4.01-5.56c-6.01,.03-10.96-4.9-10.97-10.94-.01-6.05,4.87-10.96,10.92-10.97,6.01-.01,10.97,4.94,10.96,10.96,0,5.98-4.93,10.92-10.92,10.95" fill="#727579"/><path d="M16.57,47.76c1.66-.83,3.26-1.62,4.92-2.45" fill="#727579"/><path d="M15,39.66c-.25,.19-.43,.35-.64,.47-.45,.26-.56,.55-.32,1.07,.42,.92,.74,1.89,1.11,2.84" fill="#727579"/><path d="M28.61,32.12c0,.55,.25,.75,.77,.73,.49-.02,.97,0,1.46,0" fill="#727579"/><path d="M38.09,27.02h-.94c-.4,1.25-.78,2.41-1.16,3.61,.5,0,.97,.07,1.42-.03" fill="#727579"/><path d="M44.98,44.35c.38-.11,.77-.21,1.15-.32,.95-.29,1.51-.91,1.57-1.91,.04-.64,.05-1.29,0-1.93-.07-1.04-.75-1.82-1.78-1.91-1.03-.1-2.08-.08-3.12-.03-.6,.03-.98,.51-.98,1.06s.42,1.02,1.04,1.09c.26,.03,.53,0,.8,0h1.83q.23,1.52-1.13,1.89c-.21,.06-.43,.1-.64,.17-1.2,.38-1.89,1.32-1.9,2.58,0,.6,0,1.2,0,1.8,0,.89,.41,1.3,1.29,1.31,1.11,.01,2.22,.01,3.32,0,.81,0,1.29-.45,1.28-1.12-.02-.65-.47-1.03-1.28-1.05-.79-.01-1.59,0-2.43,0-.14-1.28-.13-1.3,.98-1.61" fill="#727579"/><path d="M55,38.39c-.69-.49-1.57,.08-1.6,1-.02,.88,0,1.76,0,2.63h-2.07c0-.88,.02-1.7,0-2.52-.02-.78-.44-1.26-1.07-1.27-.65-.01-1.1,.51-1.11,1.3,0,1.11,0,2.22,0,3.32,0,1.01,.41,1.41,1.41,1.42,.92,0,1.85,0,2.84,0,0,.93-.01,1.79,0,2.65,.01,.7,.46,1.2,1.06,1.21,.61,.01,1.08-.46,1.08-1.18,.01-2.53,.03-5.05-.02-7.58,0-.34-.25-.78-.52-.98" fill="#727579"/><path d="M39.77,6.48c2.08,0,4.16,0,6.25,0s4.16,0,6.24,0c.86,0,1.39-.42,1.37-1.09-.02-.65-.52-1.04-1.35-1.04-4.16,0-8.33,0-12.49,0-.86,0-1.3,.36-1.31,1.05,0,.7,.44,1.07,1.29,1.07" fill="#727579"/><path d="M39.63,10.74c1.73,0,3.45,.01,5.18,0,.68,0,1.11-.43,1.12-1.04,.01-.64-.43-1.07-1.16-1.08-.84-.01-1.68,0-2.52,0s-1.73,0-2.59,0c-.74,0-1.17,.4-1.18,1.04,0,.65,.42,1.08,1.15,1.08" fill="#727579"/></svg>