<?xml version="1.0" encoding="UTF-8"?><svg id="a" xmlns="http://www.w3.org/2000/svg" viewBox="0 0 666.68 600"><path d="M317.14,4.2c10.07-5.6,22.33-5.6,32.4,0l300,166.67c16.09,8.95,21.88,29.24,12.94,45.33-5.88,10.58-17.03,17.14-29.14,17.14v300c18.41,0,33.33,14.92,33.33,33.33s-14.92,33.33-33.33,33.33H33.34C14.93,600,0,585.08,0,566.67s14.92-33.33,33.33-33.33V233.33C14.93,233.34,0,218.41,0,200c0-12.1,6.56-23.25,17.14-29.14L317.14,4.2h0Zm-83.8,329.13c0-18.41-14.92-33.33-33.33-33.33s-33.33,14.92-33.33,33.33v100c0,18.41,14.92,33.33,33.33,33.33s33.33-14.92,33.33-33.33v-100Zm133.33,0c0-18.41-14.92-33.33-33.33-33.33s-33.33,14.92-33.33,33.33v100c0,18.41,14.92,33.33,33.33,33.33s33.33-14.92,33.33-33.33v-100Zm133.33,0c0-18.41-14.92-33.33-33.33-33.33s-33.33,14.92-33.33,33.33v100c0,18.41,14.92,33.33,33.33,33.33s33.33-14.92,33.33-33.33v-100Z" fill-rule="evenodd"/></svg>