<?xml version="1.0" encoding="UTF-8"?>
<svg version="1.1" xmlns="http://www.w3.org/2000/svg" width="330" height="390">
<path d="M0 0 C-0.97744903 4.12700702 -2.65523243 7.06758935 -5.125 10.4375 C-8.17725431 14.62724039 -10.59227465 18.89879799 -12.9375 23.5 C-16.28501463 29.98504954 -20.12527481 35.53591254 -25 41 C-25.5053125 41.63292969 -26.010625 42.26585937 -26.53125 42.91796875 C-33.59489813 51.08080703 -46.8773652 56.36481951 -57.53198242 57.19799805 C-61.25145116 57.34977891 -64.96935908 57.42431105 -68.69140625 57.47851562 C-75.22159039 57.66522242 -80.84254888 58.81836435 -87 61 C-82.58825914 65.41174086 -67.86806513 65.21584363 -62 65.25 C-59.66593558 65.1905678 -57.33243336 65.10556272 -55 65 C-54.28714844 64.97389648 -53.57429688 64.94779297 -52.83984375 64.92089844 C-50.55907689 64.83580979 -48.27973898 64.73407372 -46 64.625 C-45.29359375 64.59438477 -44.5871875 64.56376953 -43.859375 64.53222656 C-39.5700946 64.28461066 -36.04544912 63.36486138 -32 62 C-15.91093921 60.62728214 -0.57476073 65.93147132 12.0078125 76.109375 C16.95367158 80.80309224 21.4824826 85.89837908 26 91 C26.62390625 91.69867188 27.2478125 92.39734375 27.890625 93.1171875 C30.44325472 96.03255933 32.74766849 99.03423588 35 102.1875 C37.61708587 105.75310642 40.17337405 107.8133566 44 110 C43.67 111.32 43.34 112.64 43 114 C42.45472656 114.10957031 41.90945312 114.21914062 41.34765625 114.33203125 C36.50624752 115.34996847 31.95188104 116.62781615 27.3359375 118.4140625 C20.86658205 120.03681052 15.2508289 118.4431549 9.0625 116.625 C2.9548991 114.90908884 -2.93464561 113.60362747 -9.25 113 C-22.6642127 111.54690575 -35.92247484 107.53362157 -44.68798828 96.71948242 C-47.05622048 93.61574975 -49.20462257 90.3684765 -51.375 87.125 C-60.00486624 73.95595149 -60.00486624 73.95595149 -74 68 C-80.67762731 67.03181009 -87.40690404 66.47915833 -94.125 65.875 C-96.8288802 65.62216085 -99.53248161 65.36649498 -102.23605347 65.11038208 C-103.90762654 64.95307683 -105.57942964 64.79818898 -107.25149536 64.64620972 C-112.18308525 64.19460271 -117.08904065 63.63897761 -122 63 C-121.1121582 63.88260498 -120.22431641 64.76520996 -119.30957031 65.67456055 C-116.00459907 68.96138101 -112.70297988 72.25155131 -109.40234375 75.54272461 C-107.97551685 76.96453431 -106.54779221 78.3854437 -105.11914062 79.80541992 C-103.06141159 81.85096881 -101.00697222 83.89977321 -98.953125 85.94921875 C-98.31755676 86.5796257 -97.68198853 87.21003265 -97.02716064 87.85954285 C-94.44866121 90.43771786 -92.02775724 92.96502618 -89.75756836 95.82543945 C-87.34893101 98.80553848 -84.78174742 99.909772 -81.3125 101.5 C-80.15363281 102.0465625 -78.99476562 102.593125 -77.80078125 103.15625 C-35.01177807 120.7195233 23.39878393 130.97557137 68.05493164 116.67700195 C72.49631088 115.26945226 76.27552552 114.63247501 81 115 C82.9375 116.5 82.9375 116.5 84 118 C83.05591396 121.77634415 82.09081553 122.93461282 78.875 125.25 C72.62140485 128.39605916 67.89417893 128.37924254 61.3125 126.5 C57.08288874 125.33016623 53.78927101 124.8952581 49.4375 125.40234375 C39.86549219 126.29032053 30.29234359 126.10665445 20.6875 126.0625 C18.77148555 126.05747279 16.85546982 126.05291206 14.93945312 126.04882812 C10.29293647 126.03792424 5.64648279 126.02072757 1 126 C2.09699219 126.53399414 3.19398438 127.06798828 4.32421875 127.61816406 C5.77877895 128.33371384 7.23319864 129.04954929 8.6875 129.765625 C9.40873047 130.1157666 10.12996094 130.4659082 10.87304688 130.82666016 C14.90566229 132.81995065 18.48373028 134.90553627 22 137.75 C26.75536406 141.32259889 31.63043447 142.48342231 37.38085938 143.58300781 C41.88894369 144.48684541 44.75364856 145.71101355 48 149 C49.61797753 154.76404494 49.61797753 154.76404494 48 158 C45.56508066 159.21745967 43.72685204 159.40557768 41.0546875 158.87890625 C37.39363892 157.31286836 34.83968967 154.45125018 31.984375 151.734375 C14.36798826 135.22958468 -6.44041482 125.48059752 -29.9375 120.5625 C-32.67217893 119.97078128 -35.40466437 119.36933458 -38.13671875 118.765625 C-38.80865265 118.61764969 -39.48058655 118.46967438 -40.17288208 118.31721497 C-53.29593698 115.40346075 -66.5258095 112.07323537 -79 107 C-77.29779622 108.44475303 -75.58793493 109.8804864 -73.875 111.3125 C-72.92367187 112.11300781 -71.97234375 112.91351563 -70.9921875 113.73828125 C-64.41361074 118.71086081 -57.60907305 120.27593972 -49.6875 122.0625 C-47.95113281 122.46263306 -47.95113281 122.46263306 -46.1796875 122.87084961 C-39.6271887 124.33632435 -33.18588154 125.47213689 -26.5 126.0625 C-16.22261103 126.98877775 -8.25267489 131.03633103 -1.5 138.91796875 C-0.65813768 140.00123773 0.17497018 141.09135693 1 142.1875 C1.43570313 142.76411377 1.87140625 143.34072754 2.3203125 143.93481445 C6.91789089 150.11108976 10.76747407 155.55981851 11.875 163.3125 C12.4134563 166.79877898 12.4134563 166.79877898 14.53125 169.484375 C19.23132119 172.23272171 23.62508936 173.12582809 28.97265625 173.1328125 C29.94589844 173.13506836 30.91914063 173.13732422 31.921875 173.13964844 C32.95828125 173.13481445 33.9946875 173.12998047 35.0625 173.125 C36.12855469 173.12016602 37.19460937 173.11533203 38.29296875 173.11035156 C41.52893889 173.08621694 44.76428678 173.04706128 48 173 C49.41321533 172.98114746 49.41321533 172.98114746 50.85498047 172.96191406 C53.40479439 172.91625688 55.95141118 172.84012894 58.5 172.75 C59.24515869 172.73598145 59.99031738 172.72196289 60.75805664 172.70751953 C67.10601355 172.41750036 72.2409205 170.38876826 77.06640625 166.2109375 C77.80697266 165.30214844 77.80697266 165.30214844 78.5625 164.375 C79.13226563 163.6840625 79.70203125 162.993125 80.2890625 162.28125 C82.09904492 159.8679401 83.76607785 157.38591472 85.4375 154.875 C90.18488881 148.00711086 95.81893508 143.51884582 103.984375 141.40234375 C118.42422953 139.47578285 135.79842238 142.14523441 148 150 C149.99295826 151.01396122 151.98979754 152.0206706 154 153 C154 153.99 154 154.98 154 156 C152.68 156 151.36 156 150 156 C149.6596875 156.82177734 149.6596875 156.82177734 149.3125 157.66015625 C144.63117624 166.00573046 135.95475514 172.89208974 127 176 C123.68484234 176.92865919 120.41017676 177.54104037 117 178 C116.18660156 178.11085938 115.37320312 178.22171875 114.53515625 178.3359375 C104.19617181 179.54460235 94.79728518 178.95064926 84.625 176.875 C73.81937622 174.87165833 64.39221729 175.21385403 53.57421875 176.69189453 C49.12519355 177.22439356 44.66173234 177.42153006 40.1875 177.625 C39.36209717 177.66455811 38.53669434 177.70411621 37.6862793 177.74487305 C35.79104125 177.83401512 33.89554658 177.91767912 32 178 C36.02903796 179.9320849 40.06361345 181.85197576 44.10327148 183.76171875 C45.47098611 184.41024971 46.83725335 185.06184381 48.2019043 185.71679688 C64.35218277 194.41422377 64.35218277 194.41422377 81.76025391 194.79150391 C82.49937012 194.53030762 83.23848633 194.26911133 84 194 C85.78384008 193.47854911 87.56909087 192.96190826 89.35546875 192.44921875 C91.29952292 191.86212404 93.24353145 191.27487816 95.1875 190.6875 C140.68518949 177.29175916 140.68518949 177.29175916 157 185 C161.71294977 187.57922624 165.65459488 190.50569377 169.3125 194.4375 C173.74007893 199.13786815 179.36955113 201.95826325 185 205 C184.81640625 206.78515625 184.81640625 206.78515625 184 209 C181.77734375 210.74609375 181.77734375 210.74609375 178.9375 212.4375 C177.92945313 213.0459375 176.92140625 213.654375 175.8828125 214.28125 C174.93148438 214.8484375 173.98015625 215.415625 173 216 C171.76948645 216.81045872 170.54016224 217.62272865 169.3125 218.4375 C150.864793 229.9245258 132.19858002 237.93078259 110.40234375 232.90625 C96.54579768 229.21541339 89.7413432 221.24821061 82.296875 209.5234375 C78.74426719 203.5324877 78.74426719 203.5324877 73.03125 199.953125 C71.28328125 199.60507812 71.28328125 199.60507812 69.5 199.25 C59.41039541 196.99164922 50.28771883 192.43312966 41 188 C44.26206186 195.56030807 47.68410273 201.04601844 53.6875 206.6640625 C62.0900822 215.15180601 66.89715811 225.07233129 67.375 237 C67.29776405 239.00241345 67.16483338 241.00288835 67 243 C66.91951416 244.03737305 66.91951416 244.03737305 66.83740234 245.09570312 C65.86433403 256.22324835 63.3984499 264.45588708 57.1640625 273.73046875 C54.54984725 277.68010443 52.76717714 281.62047405 51 286 C46.68170036 282.17712172 44.62287886 278.62974628 42.5 273.3125 C41.90328313 271.87797182 41.30432549 270.44437366 40.703125 269.01171875 C40.41501953 268.32126465 40.12691406 267.63081055 39.83007812 266.91943359 C38.75131695 264.42495701 37.51826731 262.02783175 36.25 259.625 C29.78309889 246.71254069 28.99516096 232.52945574 33.01171875 218.65234375 C34.90769037 213.5639456 37.47139248 208.93927819 40.83203125 204.67578125 C42.3647476 201.94186251 42.3647476 201.94186251 41.04296875 198.6953125 C40.45355708 197.49054232 39.83314914 196.30059112 39.1875 195.125 C38.85564697 194.50149658 38.52379395 193.87799316 38.18188477 193.2355957 C32.51357855 183.08580565 22.60805972 177.95105946 13 172 C13.2165625 172.79664063 13.433125 173.59328125 13.65625 174.4140625 C13.9346875 175.47367188 14.213125 176.53328125 14.5 177.625 C14.7784375 178.66914063 15.056875 179.71328125 15.34375 180.7890625 C15.99118596 183.95687418 16.1161292 186.77741467 16 190 C14.824375 189.78923828 14.824375 189.78923828 13.625 189.57421875 C10.87061108 189.1379093 8.14352528 188.77239754 5.375 188.45703125 C-4.53685236 187.29480488 -14.21391489 185.7205693 -23.875 183.1875 C-24.77089844 182.96360596 -25.66679688 182.73971191 -26.58984375 182.5090332 C-32.7647831 180.80172767 -37.15943673 178.16213287 -42 174 C-42.60593994 173.49017578 -43.21187988 172.98035156 -43.83618164 172.45507812 C-52.3712866 165.03256879 -57.69786683 153.8049173 -60.9609375 143.20703125 C-66.54598085 125.96898392 -76.4261859 114.64187443 -90.359375 103.2109375 C-92.4133418 101.49119606 -94.02206748 99.98533562 -95.625 97.875 C-97.66618426 95.40409274 -99.42894463 93.8333686 -102 92 C-101.96970703 92.55647217 -101.93941406 93.11294434 -101.90820312 93.6862793 C-100.96149155 111.49355986 -100.67287644 129.18043326 -101.4375 147 C-101.49623291 148.38928711 -101.49623291 148.38928711 -101.55615234 149.80664062 C-101.75732297 153.95954231 -101.99507365 157.94651558 -103 162 C-101.15535156 162.36351562 -101.15535156 162.36351562 -99.2734375 162.734375 C-97.64048232 163.0722278 -96.00767754 163.41080808 -94.375 163.75 C-93.56675781 163.90726563 -92.75851563 164.06453125 -91.92578125 164.2265625 C-84.20682097 165.85821264 -78.74591162 169.35711011 -73.6796875 175.4140625 C-67.87436331 184.3515616 -65.51016684 195.48521598 -67 206 C-69.15824593 214.37740197 -76.56318351 219.90779515 -83.5 224.5 C-88.71533724 226.73514453 -92.96123057 226.92548841 -98.3984375 225.26953125 C-103.32835334 223.26317015 -106.2897645 220.85777063 -110 217 C-111.08335301 215.95558886 -112.17080478 214.91541727 -113.26171875 213.87890625 C-114.40377135 212.77356717 -115.54569671 211.66809661 -116.6875 210.5625 C-117.26822266 210.01529297 -117.84894531 209.46808594 -118.44726562 208.90429688 C-124.15368335 203.32981944 -125.45859071 197.69805251 -126.01953125 189.85546875 C-125.95664553 180.66157664 -121.25456475 172.31116693 -116 165 C-112.95526244 162.01141539 -110.41935256 160 -106 160 C-105.97668624 152.62772417 -105.9589889 145.25545647 -105.94818783 137.88315105 C-105.94300023 134.4587898 -105.93597881 131.03445402 -105.92456055 127.61010742 C-105.91147585 123.66064778 -105.90673774 119.71119796 -105.90234375 115.76171875 C-105.89718246 114.54981369 -105.89202118 113.33790863 -105.88670349 112.08927917 C-105.88570872 96.80670064 -106.86190811 88.40881727 -117.5625 77.0625 C-121.21250168 73.57614362 -125.07640845 70.35882204 -129 67.1875 C-129.56920166 66.71900635 -130.13840332 66.2505127 -130.72485352 65.76782227 C-134.92133613 62.46028807 -138.92525379 60.67488883 -144 59 C-144 54.38 -144 49.76 -144 45 C-142.37239583 46.39973958 -140.74479167 47.79947917 -139.1171875 49.19921875 C-138.41851562 49.79347656 -137.71984375 50.38773438 -137 51 C-136.11441406 51.8559375 -135.22882813 52.711875 -134.31640625 53.59375 C-130.58564004 56.68270784 -126.76935668 57.21873533 -122.0625 57.8125 C-121.22420654 57.92795166 -120.38591309 58.04340332 -119.5222168 58.16235352 C-106.93599407 59.77824128 -92.63198039 60.95368557 -81 55 C-78.12927935 51.2156413 -76.53264374 47.21662058 -74.82470703 42.84277344 C-71.48550148 35.38145801 -65.05948431 28.83602343 -59.60546875 22.81640625 C-57.90653057 20.96855442 -57.90653057 20.96855442 -56.34765625 18.59375 C-53.12483521 15.0330958 -49.48525495 13.12735043 -45.25 10.9375 C-44.40816162 10.49921875 -43.56632324 10.0609375 -42.69897461 9.609375 C-34.96150526 5.72862223 -27.50487708 3.5595297 -19 2 C-17.87335938 1.77828125 -16.74671875 1.5565625 -15.5859375 1.328125 C-10.32807331 0.3626611 -5.34276364 -0.24285289 0 0 Z M-38 11 C-39.58361328 11.73863281 -39.58361328 11.73863281 -41.19921875 12.4921875 C-48.83677943 16.27177853 -53.86679727 20.25437971 -59 27 C-59.82371094 28.02738281 -60.64742187 29.05476563 -61.49609375 30.11328125 C-70.53339996 40.15365376 -70.53339996 40.15365376 -75 52 C-68.52772572 50.19326197 -63.48048187 47.69298208 -58.0625 43.75 C-57.02609375 43.01801392 -57.02609375 43.01801392 -55.96875 42.27124023 C-53.97119642 40.85825111 -51.98397233 39.43197374 -50 38 C-44.1513121 33.7960154 -38.54827528 30.03160893 -32 27 C-39.56021408 33.87292189 -47.49548986 39.89282657 -56 45.5625 C-56.9077417 46.16980957 -57.8154834 46.77711914 -58.75073242 47.40283203 C-62.76246449 50.04149105 -66.4810263 52.32284998 -71 54 C-71 54.33 -71 54.66 -71 55 C-56.91788977 55.86217001 -41.9067721 51.69121976 -30.88671875 42.75 C-23.52192921 35.91889086 -19.10224341 27.76417519 -14.59277344 18.92382812 C-11.74705968 13.34809812 -8.72730601 8.0454996 -5 3 C-15.80215664 3 -28.38254575 6.1832982 -38 11 Z M-36.84375 67.3046875 C-40.62151965 68.13691893 -44.03635892 68.16287016 -47.87890625 67.91015625 C-50.36365309 68.01540335 -51.87006122 68.75874316 -54 70 C-51.64723978 70.89967572 -49.29313063 71.79538703 -46.9375 72.6875 C-45.8551709 73.09850952 -45.8551709 73.09850952 -44.75097656 73.51782227 C-41.19724307 74.85337823 -37.64570894 76.13978837 -34.01953125 77.265625 C-25.552519 79.89785679 -18.45131631 83.21597016 -11 88 C-9.73907389 88.78252867 -8.47731538 89.56371721 -7.21484375 90.34375 C-5.93406199 91.14450116 -4.6541003 91.94656564 -3.375 92.75 C-2.46802368 93.31509277 -2.46802368 93.31509277 -1.54272461 93.89160156 C1.36822823 95.75534422 3.05192264 97.07788395 5 100 C2.45664248 98.66981786 -0.08468375 97.33597013 -2.625 96 C-3.40480225 95.59209229 -4.18460449 95.18418457 -4.98803711 94.76391602 C-9.63148125 92.31677875 -14.10316954 89.71011214 -18.5625 86.9375 C-27.58090043 81.6864127 -37.56017187 78.86993188 -47.48046875 75.78613281 C-50.33356916 74.89592125 -53.16953577 73.95964369 -56 73 C-54.36322869 75.59837446 -52.71790009 78.19078111 -51.0625 80.77734375 C-49.69826804 82.90895619 -48.34391062 85.04692387 -47 87.19140625 C-38.75992394 100.0504312 -30.18951496 105.29337897 -15.1875 108.6875 C-9.00735509 109.90852201 -2.80087345 110.69509027 3.44921875 111.4609375 C6.74591386 111.96142587 9.80377599 112.68930651 13 113.625 C21.79218164 116.14628738 27.7058636 114.35965019 36 111 C30.56063328 102.66735311 25.17535963 94.92956843 17.9921875 88.00390625 C16.07140215 86.07182217 14.39501883 84.05760113 12.6875 81.9375 C4.21505168 72.20563369 -8.94449964 66.7264804 -21.5625 65 C-26.92335733 64.69253906 -31.68801782 65.94210114 -36.84375 67.3046875 Z M67.625 120 C66.56539062 120.37125 65.50578125 120.7425 64.4140625 121.125 C63.61742187 121.41375 62.82078125 121.7025 62 122 C66.04311596 124.69541064 69.24865222 124.6753982 74 124 C76.61504538 122.90444365 78.6377905 121.60831285 81 120 C80.67 119.34 80.34 118.68 80 118 C75.40907294 117.77941492 71.94544748 118.4638409 67.625 120 Z M-58 125 C-54.71318854 128.48366223 -51.56417347 131.08224191 -47.4375 133.5 C-46.29287818 134.18517886 -45.1497528 134.8728613 -44.0078125 135.5625 C-43.3777832 135.94277344 -42.74775391 136.32304687 -42.09863281 136.71484375 C-12.80870581 154.65134628 -12.80870581 154.65134628 -3.7890625 166.703125 C-2.02879743 169.07015395 -2.02879743 169.07015395 0.2265625 171.171875 C2 173 2 173 2 175 C-1.45335331 173.54515049 -3.38859369 171.70865015 -5.8125 168.875 C-6.51890625 168.06675781 -7.2253125 167.25851562 -7.953125 166.42578125 C-9.18192181 164.96951632 -10.38822936 163.493145 -11.546875 161.98046875 C-20.11556588 151.13709962 -33.99152546 144.69424996 -45.85400391 138.11035156 C-50.22383084 135.67141669 -54.12079054 133.18487625 -58 130 C-58.66 130 -59.32 130 -60 130 C-59.30876012 132.31984295 -58.61261285 134.63782456 -57.90625 136.953125 C-57.2923236 139.0171879 -56.70983229 141.09081567 -56.15625 143.171875 C-52.6503217 155.8053063 -45.45929954 168.71856912 -33.87890625 175.5859375 C-29.0249145 178.17811637 -24.1569134 179.54437154 -18.8125 180.75 C-17.94947266 180.95753906 -17.08644531 181.16507813 -16.19726562 181.37890625 C-9.25576076 183.02532286 -2.79378439 184.13013004 4.375 184.0625 C5.62023437 184.05347656 6.86546875 184.04445313 8.1484375 184.03515625 C9.55996094 184.01775391 9.55996094 184.01775391 11 184 C8.88563483 165.27828132 8.88563483 165.27828132 0 149 C-0.65613281 148.11441406 -1.31226563 147.22882813 -1.98828125 146.31640625 C-7.90413985 138.5855852 -14.21209426 131.28041967 -24.29125977 129.62329102 C-26.85940134 129.36395232 -29.42446903 129.17055874 -32 129 C-40.86279826 128.29696209 -49.33643164 126.99621391 -58 125 Z M89.4375 154.37890625 C85.08109086 159.06344236 80.87398835 164.2520233 78 170 C79.31388752 169.73598005 80.62602339 169.46324636 81.9375 169.1875 C82.66839844 169.03667969 83.39929688 168.88585937 84.15234375 168.73046875 C86.55131359 168.11509514 88.74414854 167.36001284 91.0625 166.5078125 C96.63969806 164.61568275 102.2256315 164.21118416 108.0625 163.6875 C117.40945973 162.73188929 125.48836076 160.96899011 134.0859375 157.20703125 C137 156 137 156 140 156 C129.15959986 163.05886521 117.55587987 164.41315301 104.98266602 165.77880859 C96.47102124 166.7722919 88.93915713 168.78107892 81 172 C81.33 172.66 81.66 173.32 82 174 C96.06839072 178.50410928 118.45437277 177.72932847 131.9375 171 C137.84698683 167.13610476 142.9386945 161.89002612 148 157 C146.80464287 153.41392862 145.36840124 152.66252349 142.11767578 150.92333984 C138.35167436 149.28130418 134.46422406 148.54494755 130.4375 147.8125 C129.55924561 147.64741943 128.68099121 147.48233887 127.77612305 147.31225586 C112.48504956 144.54436917 101.35610911 143.03760477 89.4375 154.37890625 Z M35 148 C37.80804268 150.96404505 40.18315774 153.44499019 44 155 C44 153.68 44 152.36 44 151 C40.69865082 148.43228397 39.27125508 148 35 148 Z M-103 165 C-103 168.63 -103 172.26 -103 176 C-103.99 172.7 -104.98 169.4 -106 166 C-110.51185427 169.23909577 -110.51185427 169.23909577 -113 174 C-113.31290358 176.80495713 -113.23054823 179.14120194 -113 182 C-110.11487022 184.34522935 -110.11487022 184.34522935 -106.5 183.875 C-102.9565457 183.37997248 -102.9565457 183.37997248 -101.5 181 C-101.005 180.34 -100.51 179.68 -100 179 C-98.824375 178.835 -97.64875 178.67 -96.4375 178.5 C-95.303125 178.335 -94.16875 178.17 -93 178 C-91.48705712 176.06402968 -91.48705712 176.06402968 -91 174 C-94.60778414 169.08029436 -97.24665785 167.03059135 -103 165 Z M-113 167 C-112 169 -112 169 -112 169 Z M-92 167 C-91.71125 167.54269531 -91.4225 168.08539063 -91.125 168.64453125 C-90.75375 169.35996094 -90.3825 170.07539063 -90 170.8125 C-89.62875 171.52019531 -89.2575 172.22789062 -88.875 172.95703125 C-88 175 -88 175 -88 178 C-81.07 180.97 -81.07 180.97 -74 184 C-76.07526806 177.77419582 -78.05160833 174.19779294 -83 170 C-85.93316549 168.59859871 -88.8280538 167.69049169 -92 167 Z M-115 170 C-114 172 -114 172 -114 172 Z M-116 172 C-121.38946901 181.47969103 -123.50560571 187.53880488 -120.875 198.125 C-119.29724496 202.97963091 -116.78191511 206.58042406 -113 210 C-112.67 210 -112.34 210 -112 210 C-112.13672691 196.97275428 -112.13672691 196.97275428 -115.125 184.5625 C-116.54633167 180.40002869 -115.61653878 176.29077665 -115 172 C-115.33 172 -115.66 172 -116 172 Z M-98 183 C-98.86625 183.70125 -99.7325 184.4025 -100.625 185.125 C-103.89437178 187.70608298 -106.9144277 188 -111 188 C-110.67330082 197.98066008 -109.8939389 209.32926484 -103.6875 217.625 C-99.6321981 221.20875516 -96.19375186 222.91562493 -90.75 223.125 C-82.24922327 220.57476698 -75.37690275 215.73252819 -71 208 C-69.24272279 202.14621293 -69.50778126 196.48700612 -71.8359375 190.8515625 C-74.05177993 187.3270346 -77.35670593 185.80260543 -81 184 C-81.73992187 183.57203125 -82.47984375 183.1440625 -83.2421875 182.703125 C-88.95445612 179.65921716 -92.43358593 179.64053424 -98 183 Z M118.5 188.125 C117.29762695 188.43832275 116.09525391 188.75164551 114.85644531 189.07446289 C104.18996432 191.87819534 93.57654227 194.87511251 83 198 C86.47217026 200.31478017 89.90182506 201.2851686 93.875 202.375 C94.65568848 202.59196533 95.43637695 202.80893066 96.24072266 203.0324707 C103.4519981 204.9727656 110.73656592 206.38845953 118.09326172 207.65576172 C118.93646973 207.80416504 119.77967773 207.95256836 120.6484375 208.10546875 C121.39270996 208.23074951 122.13698242 208.35603027 122.90380859 208.48510742 C125.14900461 209.03660036 126.97644655 209.89445024 129 211 C122.18580833 210.42252613 115.52457908 209.49071843 108.8125 208.1875 C107.90991455 208.01444336 107.0073291 207.84138672 106.07739258 207.66308594 C98.27814495 206.1298946 90.63566401 204.20507655 83 202 C84.5902284 206.77987726 87.24463273 210.47794866 90.1875 214.5 C90.64447266 215.15097656 91.10144531 215.80195313 91.57226562 216.47265625 C98.85579371 226.47361714 107.80666725 229.16929304 119.70703125 231.5390625 C139.55104925 234.29606662 161.13394185 221.68850548 176.6875 210.375 C178.13532364 209.26331751 179.57773708 208.14420253 181 207 C178.58407288 204.33608036 175.95016502 202.6567229 172.875 200.8125 C169.02200652 198.43211659 165.83501509 195.9987372 162.625 192.8125 C154.93301895 185.7637985 145.57900141 184.62551672 135.49707031 184.75488281 C129.64235105 185.16525269 124.14900517 186.59250628 118.5 188.125 Z M47 205 C47.40448396 209.21797246 47.81353387 213.43546963 48.22680664 217.65258789 C48.36673306 219.08703638 48.50541469 220.52160687 48.64282227 221.95629883 C48.84063214 224.01937727 49.0429257 226.08197444 49.24609375 228.14453125 C49.42676392 230.00621948 49.42676392 230.00621948 49.61108398 231.90551758 C49.90134582 235.02980272 49.90134582 235.02980272 51 238 C50.34 238 49.68 238 49 238 C48.87882813 236.99582031 48.75765625 235.99164063 48.6328125 234.95703125 C47.80630751 228.1733582 46.95478814 221.39187149 46 214.625 C45.855625 213.58601562 45.71125 212.54703125 45.5625 211.4765625 C45.19488886 208.83960309 45.19488886 208.83960309 43 207 C35.67307476 219.25015564 31.72813945 232.39553244 34.54296875 246.7734375 C37.96956932 258.00239149 43.47713037 270.21569556 50 280 C50.37511719 279.29875 50.75023437 278.5975 51.13671875 277.875 C53.52277376 273.45148239 55.87195553 269.12376521 58.75 265 C65.22583534 254.56786654 64.58571821 237.59906252 62.41796875 225.84375 C59.74393016 218.32225331 53.62976789 209.41984526 47 205 Z " fill="#ECE5EB" transform="translate(144,104)"/>
<path d="M0 0 C7.11047952 1.83808314 13.15752687 4.31592456 17.109375 10.828125 C18.77278674 14.40036988 20.03600212 18.10227442 21.328125 21.8203125 C25.28424662 33.05076435 30.3227919 40.74607034 39 49 C38.67 49.99 38.34 50.98 38 52 C24.19890111 54.30018315 12.80834367 53.60365035 0 48 C0 46.68 0 45.36 0 44 C1.54202616 44.45712238 3.08360214 44.91576347 4.625 45.375 C5.91277344 45.75785156 5.91277344 45.75785156 7.2265625 46.1484375 C9.08929588 46.72037536 10.93238627 47.36024015 12.75 48.0625 C16.97204785 49.28039842 21.00189741 49.45760851 25.375 49.625 C26.20644531 49.66367188 27.03789062 49.70234375 27.89453125 49.7421875 C29.92935156 49.83574246 31.96464416 49.91892713 34 50 C33.56429687 49.5153125 33.12859375 49.030625 32.6796875 48.53125 C32.08414063 47.8609375 31.48859375 47.190625 30.875 46.5 C30.29492188 45.8503125 29.71484375 45.200625 29.1171875 44.53125 C28.41851563 43.6959375 27.71984375 42.860625 27 42 C26.5253833 41.43555176 26.0507666 40.87110352 25.56176758 40.28955078 C21.46560667 35.16822061 19.14302641 30.01732199 16.9375 23.875 C13.33327269 13.82836994 13.33327269 13.82836994 5.76171875 6.5390625 C5.07722656 6.23742187 4.39273437 5.93578125 3.6875 5.625 C2.99011719 5.30789062 2.29273438 4.99078125 1.57421875 4.6640625 C1.05472656 4.44492188 0.53523437 4.22578125 0 4 C0 2.68 0 1.36 0 0 Z " fill="#EBE5E9" transform="translate(0,83)"/>
<path d="M0 0 C15.91248391 9.82496782 15.91248391 9.82496782 18 14 C18.57237204 21.09741332 18.57237204 21.09741332 16.375 24.5625 C14 26 14 26 11.0625 26.0625 C7.08957955 24.68413984 5.54581435 23.37148387 3 20 C0.08832957 13.43127151 -0.40804125 7.10294029 0 0 Z M5 9 C6.14380501 16.45062321 6.14380501 16.45062321 11 22 C11.99 21.67 12.98 21.34 14 21 C15.0248753 19.23966377 15.0248753 19.23966377 15 17 C13.18575269 12.86754779 11.02874837 10.96272357 7 9 C6.34 9 5.68 9 5 9 Z " fill="#EBE5EB" transform="translate(0,204)"/>
</svg>
