<svg width="17" height="18" viewBox="0 0 17 18" fill="none" xmlns="http://www.w3.org/2000/svg">
<path d="M11.4 8.2V4.2C11.4 3.35131 11.0629 2.53737 10.4627 1.93726C9.86262 1.33714 9.04869 1 8.2 1C7.35131 1 6.53737 1.33714 5.93726 1.93726C5.33714 2.53737 5 3.35131 5 4.2V8.2" stroke="white" stroke-width="2" stroke-linecap="round" stroke-linejoin="round"/>
<path d="M1.64753 7.27278C1.67971 6.87183 1.86173 6.4977 2.15735 6.22491C2.45296 5.95213 2.84048 5.8007 3.24273 5.80078H12.8891C13.2914 5.8007 13.6789 5.95213 13.9745 6.22491C14.2701 6.4977 14.4521 6.87183 14.4843 7.27278L15.1267 15.2728C15.1444 15.4929 15.1163 15.7144 15.0442 15.9231C14.9721 16.1319 14.8575 16.3235 14.7078 16.4858C14.558 16.6481 14.3762 16.7777 14.1739 16.8663C13.9716 16.9549 13.7532 17.0007 13.5323 17.0008H2.59953C2.37867 17.0007 2.16021 16.9549 1.95791 16.8663C1.75561 16.7777 1.57386 16.6481 1.42409 16.4858C1.27431 16.3235 1.15977 16.1319 1.08767 15.9231C1.01556 15.7144 0.987459 15.4929 1.00513 15.2728L1.64753 7.27278Z" stroke="white" stroke-width="2" stroke-linecap="round" stroke-linejoin="round"/>
</svg>
