<?xml version="1.0" encoding="UTF-8"?><svg id="a" xmlns="http://www.w3.org/2000/svg" viewBox="0 0 46.58 39.27"><path d="M30.63,28.91H8.44c-1.69,0-3.18-1.08-3.7-2.69L.19,12.11c-.38-1.18-.17-2.48,.56-3.48s1.9-1.6,3.14-1.6h30.12l.66-3.03c.51-2.32,2.6-4,4.97-4h4.72c1.22,0,2.22,.99,2.22,2.22s-.99,2.22-2.22,2.22h-4.72c-.31,0-.58,.22-.64,.52l-4.57,20.91c-.39,1.77-1.98,3.06-3.8,3.06m-21.8-4.43H30.2l2.84-13.02H4.63l4.2,13.02Z" fill="#1c293f"/><path d="M27.6,35.35c0,2.16,1.75,3.92,3.92,3.92s3.92-1.75,3.92-3.92-1.75-3.92-3.92-3.92-3.92,1.75-3.92,3.92" fill="#1c293f"/><path d="M3.56,35.35c0,2.16,1.75,3.92,3.92,3.92s3.92-1.75,3.92-3.92-1.75-3.92-3.92-3.92-3.92,1.75-3.92,3.92" fill="#1c293f"/></svg>