<?xml version="1.0" encoding="UTF-8"?><svg id="a" xmlns="http://www.w3.org/2000/svg" viewBox="0 0 660 305"><line x1="25" y1="25" x2="91" y2="25" fill="none" stroke="#000" stroke-linecap="round" stroke-miterlimit="10" stroke-width="50"/><line x1="25" y1="152.5" x2="91" y2="152.5" fill="none" stroke="#000" stroke-linecap="round" stroke-miterlimit="10" stroke-width="50"/><line x1="25" y1="280" x2="91" y2="280" fill="none" stroke="#000" stroke-linecap="round" stroke-miterlimit="10" stroke-width="50"/><line x1="161" y1="25" x2="227" y2="25" fill="none" stroke="#000" stroke-linecap="round" stroke-miterlimit="10" stroke-width="50"/><line x1="161" y1="152.5" x2="227" y2="152.5" fill="none" stroke="#000" stroke-linecap="round" stroke-miterlimit="10" stroke-width="50"/><line x1="161" y1="280" x2="227" y2="280" fill="none" stroke="#000" stroke-linecap="round" stroke-miterlimit="10" stroke-width="50"/><line x1="297" y1="25" x2="363" y2="25" fill="none" stroke="#000" stroke-linecap="round" stroke-miterlimit="10" stroke-width="50"/><line x1="297" y1="152.5" x2="363" y2="152.5" fill="none" stroke="#000" stroke-linecap="round" stroke-miterlimit="10" stroke-width="50"/><line x1="297" y1="280" x2="363" y2="280" fill="none" stroke="#000" stroke-linecap="round" stroke-miterlimit="10" stroke-width="50"/><line x1="433" y1="25" x2="499" y2="25" fill="none" stroke="#000" stroke-linecap="round" stroke-miterlimit="10" stroke-width="50"/><line x1="433" y1="152.5" x2="499" y2="152.5" fill="none" stroke="#000" stroke-linecap="round" stroke-miterlimit="10" stroke-width="50"/><line x1="433" y1="280" x2="499" y2="280" fill="none" stroke="#000" stroke-linecap="round" stroke-miterlimit="10" stroke-width="50"/><line x1="569" y1="25" x2="635" y2="25" fill="none" stroke="#000" stroke-linecap="round" stroke-miterlimit="10" stroke-width="50"/><line x1="569" y1="152.5" x2="635" y2="152.5" fill="none" stroke="#000" stroke-linecap="round" stroke-miterlimit="10" stroke-width="50"/><line x1="569" y1="280" x2="635" y2="280" fill="none" stroke="#000" stroke-linecap="round" stroke-miterlimit="10" stroke-width="50"/></svg>