<?xml version="1.0" encoding="UTF-8"?><svg id="a" xmlns="http://www.w3.org/2000/svg" viewBox="0 0 800 422.67"><path d="M486.05,15.26c-1.5-8.81-9.14-15.26-18.09-15.26H55.36c-11.89,0-21.52,9.64-21.52,21.51s9.63,21.52,21.52,21.52h100.41c11.89,0,21.52,9.64,21.52,21.52s-9.63,21.52-21.52,21.52H21.52c-11.88,0-21.52,9.64-21.52,21.52s9.64,21.51,21.52,21.51H204.51c10.5,0,19.02,8.53,19.02,19.03s-8.52,19.02-19.02,19.02H107.29c-11.89,0-21.52,9.64-21.52,21.52s9.63,21.52,21.52,21.52h71.65c10.51,0,19.03,8.52,19.03,19.02s-8.52,19.02-19.03,19.02H80.02c-11.89,0-21.52,9.64-21.52,21.52s9.63,21.52,21.52,21.52H215.98l8.58,48.5h49.25c-2.9,7.04-4.55,14.72-4.55,22.81,0,33.2,26.9,60.1,60.1,60.1s60.09-26.9,60.09-60.1c0-8.09-1.65-15.77-4.55-22.81h156.31L486.05,15.26Zm-130.82,347.3c0,14.29-11.57,25.86-25.86,25.86s-25.87-11.57-25.87-25.86c0-9.94,5.67-18.48,13.89-22.81h23.95c8.23,4.33,13.89,12.86,13.89,22.81Z"/><path d="M799.37,302.07l-24.69-121.78-90.14-138.69h-164.12l50.83,298.15h60.03c-2.88,7.04-4.54,14.72-4.54,22.81,0,33.2,26.9,60.1,60.09,60.1s60.1-26.9,60.1-60.1c0-8.09-1.65-15.77-4.55-22.81h26.16c9.44,0,18.37-4.23,24.35-11.54,5.96-7.3,8.35-16.9,6.47-26.15Zm-186.05-204.98h41.12l53.38,82.1h-80.49l-14.01-82.1Zm99.39,265.48c0,14.29-11.57,25.86-25.87,25.86s-25.86-11.57-25.86-25.86c0-9.94,5.68-18.48,13.89-22.81h23.95c8.22,4.33,13.89,12.86,13.89,22.81Z"/></svg>