<?xml version="1.0" encoding="UTF-8"?><svg id="a" xmlns="http://www.w3.org/2000/svg" viewBox="0 0 800 500.06"><path d="M0,249.6c1.07,2.13,2.4,5.07,4,8.8,1.6,3.73,5.6,11.47,12,23.2,6.4,11.73,13.33,22.93,20.8,33.6s17.87,23.47,31.2,38.4c13.33,14.93,27.2,29.07,41.6,42.4,14.4,13.33,32.27,26.4,53.6,39.2s43.2,24,65.6,33.6,48.53,17.07,78.4,22.4c29.87,5.33,60.8,8.27,92.8,8.8,32,.53,62.93-2.4,92.8-8.8,29.87-6.4,56.27-14.13,79.2-23.2,22.93-9.07,44.53-20,64.8-32.8,20.27-12.8,38.13-26.13,53.6-40,15.47-13.87,29.33-27.47,41.6-40.8,12.27-13.33,22.67-26.67,31.2-40,8.53-13.33,15.47-24.27,20.8-32.8s9.33-16.27,12-23.2l4-8.8c-.53-2.13-1.87-5.07-4-8.8s-6.13-11.2-12-22.4-12.8-22.4-20.8-33.6-18.4-24.27-31.2-39.2c-12.8-14.93-26.67-28.8-41.6-41.6s-32.8-25.87-53.6-39.2-42.67-24.53-65.6-33.6c-22.93-9.07-49.07-16.53-78.4-22.4C463.47,2.93,432.53,0,400,0s-63.47,2.93-92.8,8.8c-29.33,5.87-55.73,13.33-79.2,22.4-23.47,9.07-45.07,20.27-64.8,33.6-19.73,13.33-37.6,26.4-53.6,39.2s-29.87,26.67-41.6,41.6-22.13,28-31.2,39.2c-9.07,11.2-16,22.4-20.8,33.6-4.8,11.2-8.8,18.93-12,23.2l-4,8Zm250.4,0c0-41.07,14.4-76.27,43.2-105.6,28.8-29.33,64.27-44,106.4-44s77.6,14.67,106.4,44c28.8,29.33,43.47,64.53,44,105.6,.53,41.07-14.13,76.53-44,106.4-29.87,29.87-65.33,44.53-106.4,44-41.07-.53-76.53-15.2-106.4-44-29.87-28.8-44.27-64.27-43.2-106.4Zm49.6,0c0,27.73,9.87,51.47,29.6,71.2,19.73,19.73,43.2,29.33,70.4,28.8,27.2-.53,50.67-10.13,70.4-28.8s29.6-42.4,29.6-71.2-9.87-52.27-29.6-70.4c-19.73-18.13-43.2-28-70.4-29.6-27.2-1.6-50.67,8.27-70.4,29.6l70.4,70.4h-100Z"/></svg>