<svg width="12" height="20" viewBox="0 0 12 20" fill="none" xmlns="http://www.w3.org/2000/svg">
<path d="M10.5556 3.33333H7.22222C6.60855 3.33333 6.11111 3.8308 6.11111 4.44444V7.77778H10.5556C10.6819 7.77498 10.8018 7.83378 10.8769 7.93544C10.952 8.03711 10.9731 8.16889 10.9333 8.28889L10.1111 10.7333C10.0353 10.9577 9.82567 11.1093 9.58889 11.1111H6.11111V19.4444C6.11111 19.7512 5.86233 20 5.55555 20H2.77778C2.47096 20 2.22222 19.7512 2.22222 19.4444V11.1111H0.555555C0.248733 11.1111 0 10.8623 0 10.5556V8.33333C0 8.02656 0.248733 7.77778 0.555555 7.77778H2.22222V4.44444C2.22222 1.98984 4.21211 0 6.66667 0H10.5556C10.8623 0 11.1111 0.248733 11.1111 0.555556V2.77778C11.1111 3.0846 10.8623 3.33333 10.5556 3.33333Z" fill="#C4C4C4"/>
</svg>
