<?xml version="1.0" encoding="UTF-8"?><svg id="a" xmlns="http://www.w3.org/2000/svg" viewBox="0 0 91.74 63.1"><path d="M91.74,43.35c-.78,2.8-1.55,5.61-2.33,8.42-.18,.66-.31,1.34-.56,1.97-.82,2.1-2.37,3.32-4.62,3.55-.51,.05-.76,.21-1,.66-1.49,2.77-3.77,4.48-6.89,5.04-3.64,.65-6.37-1.56-6.89-5.66h-.86c-9.56,0-19.11,0-28.67-.02-.65,0-.97,.2-1.3,.77-1.66,2.95-4.16,4.77-7.59,4.95-3.33,.18-5.54-1.77-6.01-5.07-.03-.18-.06-.35-.11-.64-1.81,0-3.62,.01-5.43,0-1.41-.01-2.38-.82-2.56-2.13-.05-.34,.01-.72,.1-1.05,.86-3.28,1.75-6.55,2.62-9.83,.19-.72,.6-1.17,1.36-1.19,.96-.03,1.54,.84,1.27,1.88-.76,2.88-1.53,5.75-2.3,8.63-.08,.28-.14,.57-.24,.98,1.88,0,3.69,.02,5.49-.03,.22,0,.49-.36,.63-.61,1.39-2.5,3.39-4.22,6.2-4.89,4.42-1.05,7.53,1.68,7.57,5.29,0,.05,.05,.1,.1,.19h20.27c3.08-11.48,6.15-22.97,9.27-34.59h-1.08c-2.51,0-5.02,0-7.53,0-1.15,0-1.74-.47-1.76-1.34-.02-.89,.63-1.41,1.78-1.41,2.84,0,5.67,0,8.51,0,1.91,0,2.76,.82,2.89,2.87h.94c3.02,0,6.03,0,9.05,0,2.58,0,3.94,1.36,3.95,3.9,.01,3.91,.04,7.83,.03,11.74,0,.6,.17,.99,.68,1.32,.95,.62,1.83,1.34,2.78,1.96,1,.65,1.81,1.42,2.25,2.55v1.79Zm-25.85-.27h1.17c4.63,0,9.26,0,13.88,0,1.11,0,1.75,.51,1.77,1.34,.02,.86-.67,1.4-1.81,1.41-.21,0-.42,0-.63,0-4.75,0-9.49,.02-14.24-.02-.71,0-.98,.22-1.14,.88-.54,2.17-1.13,4.32-1.7,6.48-.12,.44-.22,.89-.35,1.42,2.26,0,4.37-.02,6.49,.01,.55,0,.83-.17,1.09-.67,1.36-2.6,3.49-4.26,6.35-4.93,3.32-.78,6.32,.86,7.14,3.89,.14,.51,.19,1.04,.33,1.8,.59-.39,1.13-.64,1.51-1.04,.31-.32,.5-.81,.62-1.26,.61-2.15,1.18-4.32,1.79-6.57-.47,0-.79,.03-1.12,0-.8-.08-1.4-.71-1.33-1.42,.07-.79,.53-1.24,1.33-1.31,.3-.02,.61,.03,.89-.03,.36-.08,.71-.25,1.06-.37-.2-.37-.3-.85-.6-1.08-1.13-.88-2.29-1.72-3.49-2.5-.39-.26-.92-.44-1.39-.45-2.9-.04-5.79,0-8.69-.03-2.72-.02-4.26-2.05-3.59-4.7,.31-1.21,.64-2.41,.96-3.62,.79-3.01,2.71-4.5,5.82-4.5,1.72,0,3.45,0,5.26,0,0-.71,0-1.33,0-1.95,.01-.71-.31-1.03-1.03-1.02-3.46,.01-6.93,0-10.39,.03-.25,0-.65,.32-.72,.56-1.76,6.48-3.49,12.98-5.27,19.65m17.39-14.48c-1.89,0-3.72,0-5.56,0-1.5,0-2.39,.68-2.79,2.13-.33,1.2-.64,2.41-.95,3.62-.33,1.29-.18,1.51,1.11,1.51,2.44,0,4.89,0,7.33,0,.28,0,.57-.03,.85-.05v-7.21ZM27.74,57.37c-.01,1.63,.82,2.62,2.43,2.9,3.05,.51,6.81-2.78,6.72-5.87-.04-1.46-1-2.56-2.42-2.78-3.08-.48-6.71,2.63-6.73,5.76m53.64-2.86c0-1.74-1.07-2.87-2.8-2.92-3.01-.09-6.03,2.57-6.34,5.58-.15,1.51,.78,2.77,2.26,3.06,3.12,.61,6.87-2.5,6.88-5.72" fill="#727579"/><path d="M12.91,21.46C12.91,9.64,22.55,0,34.37,0c11.82,0,21.48,9.63,21.51,21.44,.03,11.81-9.72,21.56-21.53,21.53-11.81-.03-21.44-9.69-21.44-21.51m21.43,18.73c10.34,.04,18.71-8.28,18.76-18.66,.06-10.32-8.28-18.74-18.63-18.82-10.29-.08-18.83,8.4-18.85,18.73-.02,10.3,8.38,18.71,18.72,18.74" fill="#727579"/><path d="M8.56,38.76c2.15,0,4.3,0,6.45,0,.27,0,.54,0,.8,.03,.73,.12,1.2,.51,1.22,1.3,.03,.83-.45,1.26-1.21,1.41-.32,.06-.66,.03-.98,.03-4.24,0-8.48,0-12.71,0-.24,0-.48,.01-.72,0-.89-.08-1.43-.63-1.41-1.42,.02-.76,.53-1.29,1.4-1.33,1.31-.05,2.62-.02,3.94-.02,1.07,0,2.15,0,3.22,0" fill="#727579"/><path d="M10.03,44.52c1.31,0,2.62-.02,3.93,0,1.09,.02,1.63,.48,1.63,1.35,0,.89-.58,1.39-1.69,1.39-2.62,0-5.25,0-7.87,0-1.11,0-1.72-.49-1.73-1.37-.01-.88,.58-1.37,1.71-1.38,1.34-.02,2.68,0,4.02,0" fill="#727579"/><path d="M11.33,53.01c-.48,0-.95,.03-1.43,0-.8-.07-1.35-.68-1.29-1.42,.06-.8,.53-1.25,1.33-1.28,.98-.03,1.96-.04,2.94,0,.81,.04,1.27,.56,1.28,1.31,.01,.77-.5,1.33-1.32,1.39-.5,.04-1.01,0-1.51,0" fill="#727579"/><path d="M32.31,57.32c.73,0,1.36-.63,1.36-1.36,0-.74-.61-1.34-1.36-1.34-.78,0-1.34,.55-1.34,1.34,0,.75,.61,1.37,1.34,1.36" fill="#727579"/><path d="M32.31,57.32c-.73,0-1.34-.62-1.34-1.36,0-.78,.56-1.34,1.34-1.34,.76,0,1.37,.6,1.36,1.34,0,.73-.63,1.36-1.36,1.36" fill="#727579"/><path d="M75.46,55.92c.01-.73,.64-1.32,1.4-1.31,.78,.01,1.34,.59,1.32,1.36-.01,.74-.65,1.36-1.38,1.34" fill="#727579"/><path d="M34.33,25.72c-.13-.02-.36,0-.54-.08-1.15-.56-1.85,.06-2.53,.87-.46,.54-1,1.03-1.51,1.53-.71,.68-1.47,.73-2.06,.16-.61-.59-.59-1.33,.1-2.05,.74-.78,1.55-1.49,2.26-2.3,.22-.25,.35-.74,.27-1.05-.43-1.64-.12-3.09,1.07-4.29,1.19-1.2,2.66-1.58,4.27-1.04,.55,.18,.82,0,1.15-.34,2.12-2.14,4.26-4.27,6.39-6.4,.46-.46,.94-.85,1.65-.59,1.03,.38,1.24,1.53,.4,2.38-1.82,1.85-3.67,3.67-5.5,5.51-.13,.13-.24,.27-.38,.38-.82,.63-1.14,1.29-.88,2.46,.55,2.53-1.51,4.83-4.16,4.86m.09-2.77c.84-.02,1.44-.64,1.43-1.49,0-.88-.67-1.5-1.56-1.46-.83,.04-1.42,.69-1.39,1.53,.03,.84,.66,1.43,1.51,1.41" fill="#727579"/><path d="M48.07,20.09c.18,0,.36,0,.53,0,.87,.05,1.48,.6,1.51,1.34,.03,.73-.56,1.34-1.43,1.41-.47,.04-.95,.04-1.42-.01-.82-.09-1.36-.69-1.33-1.4,.03-.71,.62-1.26,1.42-1.33,.24-.02,.47,0,.71,0" fill="#727579"/><path d="M33.01,7.77c0-.27-.04-.54,0-.8,.12-.74,.72-1.28,1.41-1.22,.74,.06,1.21,.49,1.29,1.24,.06,.53,.06,1.07,.01,1.6-.08,.86-.62,1.33-1.4,1.29-.82-.04-1.21-.55-1.32-1.31-.04-.26,0-.53,0-.8h.01Z" fill="#727579"/><path d="M20.76,20.04c.38,.05,.77,.06,1.13,.17,.65,.2,.93,.7,.89,1.37-.04,.64-.38,1.08-1.01,1.18-.58,.09-1.18,.11-1.77,.07-.83-.07-1.36-.65-1.35-1.38,.02-.72,.58-1.28,1.39-1.35,.24-.02,.48,0,.71,0,0-.02,0-.03,0-.05" fill="#727579"/><path d="M33,35.06c0-.24-.03-.48,0-.71,.11-.77,.56-1.28,1.34-1.29,.77-.01,1.29,.44,1.37,1.24,.05,.53,.05,1.07,0,1.6-.06,.79-.55,1.24-1.32,1.31-.7,.06-1.31-.56-1.4-1.34-.03-.26,0-.53,0-.8" fill="#727579"/><path d="M34.42,22.95c-.85,.02-1.48-.57-1.51-1.41-.03-.85,.56-1.5,1.39-1.53,.89-.04,1.55,.58,1.56,1.46,0,.85-.59,1.47-1.43,1.49" fill="#727579"/></svg>