<?xml version="1.0" encoding="UTF-8"?><svg id="a" xmlns="http://www.w3.org/2000/svg" viewBox="0 0 561 503.83"><path d="M25.5,66.3c0-14.28,0-21.42,2.78-26.88,2.44-4.8,6.35-8.7,11.14-11.14,5.45-2.78,12.6-2.78,26.88-2.78H494.7c14.28,0,21.42,0,26.88,2.78,4.8,2.44,8.7,6.35,11.14,11.14,2.78,5.45,2.78,12.6,2.78,26.88v17.07c0,6.85,0,10.28-.84,13.47-.74,2.82-1.97,5.5-3.61,7.91-1.86,2.72-4.45,4.96-9.63,9.45l-163.09,141.35c-5.18,4.49-7.77,6.73-9.63,9.45-1.65,2.41-2.87,5.09-3.61,7.91-.84,3.19-.84,6.61-.84,13.47v133.31c0,4.99,0,7.48-.8,9.64-.71,1.9-1.87,3.61-3.37,4.98-1.7,1.55-4.02,2.47-8.65,4.33l-86.7,34.68c-9.37,3.75-14.06,5.62-17.82,4.84-3.29-.68-6.18-2.64-8.03-5.44-2.12-3.2-2.12-8.25-2.12-18.34v-167.99c0-6.85,0-10.28-.84-13.47-.74-2.82-1.96-5.5-3.61-7.91-1.86-2.72-4.45-4.96-9.63-9.45L39.58,114.2c-5.18-4.49-7.77-6.73-9.63-9.45-1.65-2.41-2.87-5.09-3.61-7.91-.84-3.19-.84-6.61-.84-13.47v-17.07Z" fill="none" stroke="#000" stroke-linecap="round" stroke-linejoin="round" stroke-width="51"/></svg>