<?xml version="1.0" encoding="UTF-8"?><svg id="a" xmlns="http://www.w3.org/2000/svg" viewBox="0 0 130.99 115.44"><path d="M65.48,115.44c-4.28-3.26-8.53-6.43-12.72-9.68-10.08-7.82-19.83-16.02-28.67-25.24-7.44-7.76-14.08-16.12-19.09-25.7C1.57,48.3-.18,41.45,.01,34.06,.43,17.86,12.99,3.42,28.99,.9c9.95-1.57,18.64,1.31,26.33,7.59,3.71,3.03,6.79,6.63,9.48,10.57,.2,.29,.41,.59,.7,1,.26-.37,.48-.67,.69-.98,3.86-5.63,8.44-10.53,14.38-14.02,12.64-7.46,28.21-5.71,39.06,4.49,8.58,8.06,12.17,18.07,11.2,29.78-.57,6.9-3.28,13.02-6.69,18.9-5.57,9.64-12.77,17.98-20.65,25.77-9.93,9.81-20.81,18.5-31.93,26.88-1.99,1.5-3.98,2.98-6.09,4.56" fill="#ed2730"/><path d="M65.48,114.96c-4.28-3.26-8.53-6.43-12.72-9.68-10.08-7.82-19.83-16.02-28.67-25.24-7.44-7.76-14.08-16.12-19.09-25.7C1.57,47.82-.18,40.97,.01,33.58,.43,17.38,12.99,2.94,28.99,.42c9.95-1.57,18.64,1.31,26.33,7.59,3.71,3.03,6.79,6.63,9.48,10.57,.2,.29,.41,.59,.7,1,.26-.37,.48-.67,.69-.98" fill="#d82735"/></svg>