<?xml version="1.0" encoding="UTF-8"?><svg id="a" xmlns="http://www.w3.org/2000/svg" viewBox="0 0 666.67 644.14"><path d="M399.77,25.26c-37.89-33.68-94.98-33.68-132.87,0L11.19,252.56c-13.76,12.23-15,33.3-2.77,47.06,12.23,13.76,33.3,15,47.06,2.77l11.19-9.94v187.22c0,29.55,0,55.01,2.74,75.4,2.94,21.85,9.56,42.8,26.55,59.78,16.99,16.99,37.93,23.61,59.78,26.55,20.39,2.74,45.85,2.74,75.4,2.74h204.39c29.55,0,55.01,0,75.4-2.74,21.85-2.94,42.8-9.56,59.78-26.55,16.99-16.99,23.61-37.93,26.55-59.78,2.74-20.39,2.74-45.85,2.74-75.4v-187.23l11.19,9.94c13.76,12.23,34.83,10.99,47.06-2.77,12.23-13.76,10.99-34.83-2.77-47.06L399.77,25.26Zm-66.44,418.88c-18.41,0-33.33,14.92-33.33,33.33v66.67c0,18.41-14.92,33.33-33.33,33.33s-33.33-14.92-33.33-33.33v-66.67c0-55.23,44.77-100,100-100s100,44.77,100,100v66.67c0,18.41-14.92,33.33-33.33,33.33s-33.33-14.92-33.33-33.33v-66.67c0-18.41-14.92-33.33-33.33-33.33Z" fill="#323232" fill-rule="evenodd"/></svg>