<svg width="20" height="20" viewBox="0 0 20 20" fill="none" xmlns="http://www.w3.org/2000/svg">
<path fill-rule="evenodd" clip-rule="evenodd" d="M2.22222 0H17.7778C19.0051 0 20 0.994922 20 2.22222V17.7778C20 19.0051 19.0051 20 17.7778 20H2.22222C0.994922 20 0 19.0051 0 17.7778V2.22222C0 0.994922 0.994922 0 2.22222 0ZM5.55556 16.6667C5.86238 16.6667 6.11111 16.4179 6.11111 16.1111V8.33333C6.11111 8.02656 5.86238 7.77778 5.55556 7.77778H3.88889C3.58207 7.77778 3.33333 8.02656 3.33333 8.33333V16.1111C3.33333 16.4179 3.58207 16.6667 3.88889 16.6667H5.55556ZM4.72222 6.66667C3.80174 6.66667 3.05556 5.92048 3.05556 5C3.05556 4.07952 3.80174 3.33333 4.72222 3.33333C5.6427 3.33333 6.38889 4.07952 6.38889 5C6.38889 5.92048 5.6427 6.66667 4.72222 6.66667ZM16.1111 16.6667C16.4179 16.6667 16.6667 16.4179 16.6667 16.1111V11C16.7028 9.23422 15.3973 7.72724 13.6444 7.51111C12.4189 7.39917 11.2314 7.97156 10.5556 9V8.33333C10.5556 8.02656 10.3068 7.77778 10 7.77778H8.33333C8.02656 7.77778 7.77778 8.02656 7.77778 8.33333V16.1111C7.77778 16.4179 8.02656 16.6667 8.33333 16.6667H10C10.3068 16.6667 10.5556 16.4179 10.5556 16.1111V11.9444C10.5556 11.024 11.3018 10.2778 12.2222 10.2778C13.1427 10.2778 13.8889 11.024 13.8889 11.9444V16.1111C13.8889 16.4179 14.1377 16.6667 14.4444 16.6667H16.1111Z" fill="#C4C4C4"/>
</svg>
