<?xml version="1.0" encoding="UTF-8"?><svg id="a" xmlns="http://www.w3.org/2000/svg" viewBox="0 0 29.03 38.73"><path d="M14.5,38.73c-.87-1.03-1.75-2.03-2.58-3.06-1.26-1.58-2.51-3.16-3.73-4.77-1.49-1.96-2.88-4-4.16-6.1-.99-1.62-1.91-3.27-2.67-5.02-.54-1.25-1-2.53-1.23-3.89-.18-1.05-.14-2.11-.02-3.16,.19-1.64,.66-3.21,1.4-4.68,1.12-2.23,2.71-4.06,4.76-5.48C8.15,1.28,10.22,.46,12.48,.15c2.53-.35,4.98-.07,7.35,.86,2.14,.84,3.98,2.13,5.51,3.85,1.04,1.17,1.88,2.46,2.5,3.9,.66,1.53,1.03,3.13,1.16,4.8,.11,1.46-.12,2.87-.57,4.24-.48,1.48-1.13,2.88-1.86,4.25-1.14,2.16-2.43,4.23-3.85,6.21-1.39,1.94-2.81,3.85-4.27,5.73-1.2,1.54-2.49,3.01-3.74,4.51-.06,.07-.12,.13-.21,.23M24.18,14.51c0-5.38-4.33-9.68-9.75-9.67-5.31,0-9.78,4.46-9.6,10.01,.17,5.04,4.27,9.34,9.66,9.35,5.45,0,9.72-4.42,9.68-9.69" fill="#1c293f"/><path d="M14.52,9.69c2.64-.01,4.84,2.16,4.82,4.83-.02,2.71-2.12,4.77-4.7,4.83-2.82,.07-4.86-2.13-4.97-4.6-.13-2.86,2.18-5.1,4.85-5.06" fill="#1c293f"/></svg>