<?xml version="1.0" encoding="UTF-8"?><svg id="a" xmlns="http://www.w3.org/2000/svg" viewBox="0 0 157.07 80.04"><path d="M4.58,15.84h1.96l4,18.69h-2.49l-.7-3.64H3.65l-.71,3.64H.52L4.58,15.84Zm2.41,13.1l-.56-2.98c-.37-2.03-.67-4.19-.91-6.49-.11,1.12-.26,2.26-.44,3.41-.18,1.15-.39,2.37-.63,3.66l-.46,2.4h3Z" fill="#fff"/><rect x="11.89" y="13.96" width="2.31" height="20.56" fill="#fff"/><path d="M24.66,19.8h-2.32v-2.43c0-.4-.15-.74-.43-1.03s-.62-.43-1.03-.43-.75,.14-1.04,.43c-.28,.29-.42,.63-.42,1.03v4.63h1.75v1.84h-1.75v10.68h-2.31v-10.68h-1.16v-1.84h1.16v-4.63c0-1.02,.37-1.89,1.11-2.59,.73-.71,1.62-1.06,2.66-1.06s1.93,.35,2.66,1.06c.75,.7,1.12,1.57,1.12,2.59v2.43Zm0,14.72h-2.32v-12.53h2.32v12.53Z" fill="#fff"/><path d="M30.05,15.84h1.96l4,18.69h-2.49l-.7-3.64h-3.7l-.71,3.64h-2.42l4.06-18.69Zm2.41,13.1l-.56-2.98c-.37-2.03-.67-4.19-.91-6.49-.11,1.12-.26,2.26-.44,3.41s-.39,2.37-.63,3.66l-.46,2.4h3Z" fill="#fff"/><path d="M2.36,43.01c.32,0,.59-.11,.79-.32,.2-.2,.32-.48,.32-.79s-.11-.58-.32-.78c-.2-.2-.47-.33-.79-.33s-.59,.12-.79,.33c-.2,.2-.32,.48-.32,.78s.12,.59,.32,.79c.2,.2,.47,.32,.79,.32" fill="#fff"/><path d="M5.63,43.01c.31,0,.58-.11,.78-.32,.2-.2,.32-.48,.32-.79s-.12-.58-.32-.78c-.2-.2-.47-.33-.78-.33s-.59,.12-.79,.33c-.2,.2-.32,.48-.32,.78s.11,.59,.32,.79c.2,.2,.47,.32,.79,.32" fill="#fff"/><path d="M11.2,54.15c-.31,0-.58,.12-.78,.32s-.32,.48-.32,.79,.12,.58,.32,.78c.2,.2,.48,.33,.78,.33s.59-.12,.79-.33c.2-.2,.32-.47,.32-.78s-.11-.59-.32-.79c-.2-.2-.47-.32-.79-.32" fill="#fff"/><path d="M14.46,54.15c-.32,0-.59,.12-.79,.32s-.32,.48-.32,.79,.11,.58,.32,.78c.2,.2,.47,.33,.79,.33s.59-.12,.79-.33c.2-.2,.32-.47,.32-.78s-.11-.59-.32-.79c-.2-.2-.47-.32-.79-.32" fill="#fff"/><path d="M21.7,42.99c.32,0,.59-.12,.79-.32s.32-.47,.32-.78-.12-.59-.32-.79c-.2-.2-.47-.32-.79-.32s-.58,.11-.78,.32c-.2,.2-.32,.48-.32,.79s.12,.58,.32,.78c.2,.2,.48,.32,.78,.32" fill="#fff"/><path d="M29.68,49.62c0,.38-.32,.69-.69,.69h-3.29v-2.76c0-.78-.32-1.5-.84-2.02s-1.23-.84-2.01-.84h-2.27c-.78,0-1.5,.33-2.02,.84-.52,.52-.84,1.24-.84,2.02v2.06c0,.25,.03,.48,.08,.69h-3.33c-.27,0-.48-.2-.54-.51v-5.12h-2.19v5.12c-.06,.31-.31,.51-.54,.51h-3.34c.05-.21,.08-.44,.08-.69v-2.06c0-.78-.33-1.5-.84-2.02-.52-.52-1.23-.84-2.01-.84H2.86c-.78,0-1.5,.33-2.02,.84-.52,.52-.84,1.24-.84,2.02v2.06c0,.78,.32,1.49,.84,2.01,.52,.53,1.24,.84,2.02,.84H11.19c.63,0,1.18-.21,1.62-.56,.45,.35,1.01,.56,1.64,.56h14.53c.78,0,1.49-.32,2.01-.84s.84-1.23,.84-2.01v-8.81h-2.16v8.81h.01Zm-23.91,0c0,.38-.32,.69-.69,.69H2.86c-.18,0-.36-.09-.49-.21s-.21-.3-.21-.48v-2.06c0-.38,.33-.7,.7-.7h2.21c.18,0,.37,.08,.49,.21,.12,.13,.2,.31,.2,.49v2.06h.01Zm17.77,.69h-2.96c-.2,0-.37-.09-.5-.21s-.21-.3-.21-.48v-2.06c0-.19,.08-.36,.21-.49s.3-.21,.5-.21h2.27c.38,0,.69,.33,.69,.7v2.76h0Z" fill="#fff"/><rect x="33.84" y="40.81" width="2.16" height="11.66" fill="#fff"/><path d="M34.9,37.36h1.24v-.68h-1.24c-.25,0-.47,.1-.62,.26-.16,.17-.26,.39-.26,.63v.64c0,.08,0,.16,.03,.23h-.35v.67h2.45v-.67h-1.24c-.13,0-.21-.12-.21-.23v-.64c0-.11,.08-.21,.21-.21" fill="#fff"/><polygon points="95.44 12.85 97.84 12.85 97.84 31.65 101.78 31.65 101.78 34.78 95.44 34.78 95.44 12.85" fill="#fff"/><rect x="102.83" y="12.85" width="2.4" height="21.92" fill="#fff"/><path d="M114.18,17.89v.78c0,2.26-.41,3.7-1.32,4.42,1.1,.72,1.52,2.38,1.52,4.7v1.79c0,3.38-1.06,5.2-3.11,5.2h-3.22V12.84h3.09c2.12,0,3.03,1.66,3.03,5.04m-4.07-1.91v5.79h.8c.76,0,1.23-.56,1.23-2.32v-1.22c0-1.57-.32-2.25-1.04-2.25h-.99Zm0,8.93v6.73h1.17c.69,0,1.06-.53,1.06-2.16v-1.91c0-2.04-.39-2.66-1.32-2.66h-.91Z" fill="#fff"/><path d="M120.84,34.78c-.13-.56-.22-.91-.22-2.69v-3.44c0-2.04-.48-2.79-1.57-2.79h-.83v8.93h-2.4V12.85h3.62c2.49,0,3.55,1.66,3.55,5.04v1.72c0,2.25-.5,3.73-1.57,4.45,1.2,.72,1.59,2.38,1.59,4.67v3.38c0,1.06,.02,1.85,.26,2.66h-2.43Zm-2.62-18.78v6.73h.94c.89,0,1.44-.56,1.44-2.32v-2.16c0-1.57-.37-2.26-1.22-2.26h-1.16Z" fill="#fff"/><path d="M132.35,34.78h-2.42l-.41-3.98h-2.94l-.41,3.98h-2.2l2.44-21.92h3.51l2.44,21.92h0Zm-5.47-6.95h2.31l-1.16-11.09-1.15,11.09Z" fill="#fff"/><rect x="133.46" y="12.85" width="2.4" height="21.92" fill="#fff"/><path d="M142.61,34.78c-.13-.56-.22-.91-.22-2.69v-3.44c0-2.04-.48-2.79-1.57-2.79h-.83v8.93h-2.4V12.85h3.62c2.49,0,3.55,1.66,3.55,5.04v1.72c0,2.25-.5,3.73-1.57,4.45,1.2,.72,1.59,2.38,1.59,4.67v3.38c0,1.06,.02,1.85,.26,2.66h-2.43Zm-2.62-18.78v6.73h.94c.89,0,1.44-.56,1.44-2.32v-2.16c0-1.57-.37-2.26-1.22-2.26h-1.16Z" fill="#fff"/><rect x="146.36" y="12.85" width="2.4" height="21.92" fill="#fff"/><polygon points="152.9 22.09 156.19 22.09 156.19 25.22 152.9 25.22 152.9 31.65 157.04 31.65 157.04 34.78 150.5 34.78 150.5 12.85 157.04 12.85 157.04 15.99 152.9 15.99 152.9 22.09" fill="#fff"/><path d="M97.84,44.72c.32,0,.6-.12,.8-.32s.32-.48,.32-.8-.12-.59-.32-.79c-.21-.21-.48-.33-.8-.33s-.6,.12-.8,.33c-.21,.21-.32,.48-.32,.79s.12,.6,.32,.8,.48,.32,.8,.32" fill="#fff"/><path d="M101.15,44.72c.31,0,.59-.12,.79-.32,.2-.21,.33-.48,.33-.8s-.12-.59-.33-.79c-.21-.21-.48-.33-.79-.33s-.6,.12-.8,.33c-.21,.21-.32,.48-.32,.79s.12,.6,.32,.8,.48,.32,.8,.32" fill="#fff"/><path d="M108.34,56.06c-.31,0-.59,.12-.79,.32-.2,.21-.33,.48-.33,.8s.12,.59,.33,.79c.21,.21,.48,.33,.79,.33s.6-.12,.8-.33c.21-.21,.32-.48,.32-.79s-.12-.6-.32-.8-.48-.32-.8-.32" fill="#fff"/><path d="M118.52,44.72c.32,0,.6-.12,.8-.32s.32-.48,.32-.8-.12-.59-.32-.79c-.21-.21-.48-.33-.8-.33s-.6,.12-.8,.33c-.21,.21-.32,.48-.32,.79s.12,.6,.32,.8,.48,.32,.8,.32" fill="#fff"/><path d="M121.83,44.72c.31,0,.59-.12,.79-.32,.2-.21,.33-.48,.33-.8s-.12-.59-.33-.79c-.21-.21-.48-.33-.79-.33s-.6,.12-.8,.33c-.21,.21-.32,.48-.32,.79s.12,.6,.32,.8,.48,.32,.8,.32" fill="#fff"/><path d="M156.19,47.28c-.53-.53-1.25-.86-2.04-.86h-2.25c-.79,0-1.52,.33-2.05,.86s-.86,1.26-.86,2.05v2.8h-10.89c.05-.21,.08-.45,.08-.71v-1.49c0-.79-.33-1.53-.86-2.05-.53-.53-1.25-.86-2.04-.86h-3.37c-.21,0-.37-.09-.51-.21s-.21-.3-.21-.49v-.94c0-.19,.08-.36,.21-.49s.3-.21,.51-.21h4.07v-2.2h-4.07c-.79,0-1.52,.33-2.05,.86-.54,.53-.86,1.26-.86,2.04v.94c0,.79,.33,1.52,.86,2.04,.53,.53,1.26,.86,2.05,.86h3.37c.19,0,.37,.08,.5,.21s.21,.31,.21,.5v1.49c0,.38-.32,.71-.7,.71h-13.46c-.28,0-.48-.21-.54-.52v-5.19h-2.22v5.19c-.06,.31-.31,.52-.55,.52h-8.52c-.29,0-.49-.21-.55-.52v-5.19h-2.22v5.19c-.06,.31-.3,.52-.54,.52h-3.26c.05-.21,.08-.45,.08-.71v-2.1c0-.79-.33-1.53-.86-2.05-.53-.53-1.25-.86-2.04-.86h-2.25c-.79,0-1.52,.33-2.05,.86-.53,.53-.86,1.26-.86,2.05v2.1c0,.79,.33,1.52,.86,2.04,.53,.54,1.26,.86,2.05,.86h8.33c.63,0,1.2-.21,1.64-.57,.45,.36,1.03,.57,1.68,.57h8.52c.64,0,1.19-.21,1.65-.57,.45,.36,1.03,.57,1.67,.57h32.32c.79,0,1.51-.32,2.04-.86,.53-.53,.86-1.25,.86-2.04v-2.1c0-.79-.33-1.53-.86-2.05m-54.89,4.15c0,.38-.32,.71-.7,.71h-2.25c-.19,0-.37-.09-.5-.21s-.21-.3-.21-.49v-2.1c0-.38,.33-.71,.71-.71h2.25c.19,0,.37,.08,.5,.21,.12,.13,.21,.31,.21,.5v2.1h-.01Zm53.55,0c0,.38-.32,.71-.7,.71h-2.96v-2.8c0-.19,.09-.37,.21-.5,.12-.13,.29-.21,.5-.21h2.25c.19,0,.37,.08,.5,.21,.12,.13,.21,.31,.21,.5v2.1h-.01Z" fill="#fff"/><polygon points="86.07 67.16 18.97 67.16 18.97 56.34 23.27 56.34 23.27 62.85 81.77 62.85 81.77 4.3 23.27 4.3 23.27 11.51 18.97 11.51 18.97 0 86.07 0 86.07 67.16" fill="#26bdbc"/><polygon points="28.32 69.12 36.73 69.12 36.73 79.86 32.43 77.47 28.32 80.04 28.32 69.12" fill="#26bdbc"/></svg>