<?xml version="1.0" encoding="UTF-8"?><svg id="a" xmlns="http://www.w3.org/2000/svg" viewBox="0 0 337.03 355"><path d="M242.71,86H0V353.53l.09,.47,.2,1H242.71l.07-3.25h0l.22-9.35V86.29l-.29-.29Zm-8.71,260H9V95.29l.29-.29H234v251Z" fill="#1fbbb9"/><path d="M337.03,38.38c-13.93,87.13-27.18,176.83-41.01,263.96l-.3,.59-2.63-.29-37.8-5.86-.29-.3v-9.08l4.98,.59,26.37,4.1,1.46,.29,.59-2.05c12.71-80.23,25.17-163.51,37.79-243.75l.29-1.46-1.75-.59c-63.01-9.65-155.34-23.88-218.56-33.69l-2.34-.29c-3.18,18.92-6.85,44.31-9.96,63.28l-.3,.88-1.17,.29h-7.03l-.88-.29,.59-4.69c3.01-19.73,7.57-48.96,10.54-68.56l.3-1.46h.08l3.73,.29c.09,.01,.18,.03,.27,.04,72.95,11.25,160.82,24.76,233.52,36l3.22,.58,.29,1.47Z" fill="#1fbbb9"/><path d="M315,56.25v2.34c-11.34,72.45-22.68,147.58-34.12,220.02l-1.47,.3-21.76-3.52-2.65-.59V75H104.71l-.59-.29,.29-3.81c2.02-12.85,5.08-32.86,7.06-45.7l.29-.3,5,.59c51.69,7.99,143.64,22.12,195.59,30.17l2.36,.3,.29,.29Z" fill="#1fbbb9"/><path d="M224,108v225H19V108.29h.22v-.09l-.04-.2h1.82v.19l3.57-.19c42.05-.06,124.18,.07,177.24,.22h.07c3.51,.01,6.89,.02,10.12,.03v-.25h12Z" fill="#1fbbb9"/></svg>