<?xml version="1.0" encoding="UTF-8"?><svg id="a" xmlns="http://www.w3.org/2000/svg" viewBox="0 0 1716.06 2196.51"><path d="M1544.53,992.93s103.69-5.98,103.69-105.31V205.68c0-66.41,24.1-130.56,67.84-180.54h-532.31c-104.07,0-188.44,84.37-188.44,188.44v225.22s49.42,554.13,262.13,554.13" fill="#efeff4"/><g opacity=".34"><path d="M1221.18,379.5c-.77-.93-1.1-2-.98-3.22l.84-8.75c.89-9.24,3.47-17.02,7.76-23.36,4.29-6.34,9.19-11.39,14.7-15.15,5.51-3.76,12.67-8.04,21.47-12.85,9.8-4.95,17.03-9.41,21.71-13.38,4.67-3.97,7.3-8.99,7.88-15.07,.63-6.56-1.43-11.97-6.17-16.23-4.74-4.26-11.37-6.79-19.88-7.61-9.24-.89-16.8,.54-22.67,4.27-5.88,3.73-9.14,9-9.8,15.8l-.38,4.01c-.26,2.68-1.84,3.87-4.76,3.59l-51.57-7.15c-1.22-.12-2.2-.7-2.96-1.76-.76-1.05-1.08-2.19-.96-3.41l.11-1.09c1.47-15.32,6.65-28.49,15.56-39.54,8.91-11.04,20.66-19.18,35.27-24.4,14.61-5.22,30.9-6.97,48.9-5.25,17.74,1.7,32.95,6.23,45.62,13.57,12.67,7.35,22.05,16.9,28.17,28.64,6.11,11.75,8.47,24.92,7.07,39.5-1.05,10.94-3.89,20.05-8.51,27.34-4.63,7.28-9.9,13.1-15.84,17.43-5.94,4.34-13.43,8.9-22.47,13.67-9.05,4.78-15.84,9.1-20.38,12.95-4.54,3.86-7.1,8.83-7.68,14.91l-.49,5.1c-.12,1.22-.64,2.21-1.57,2.98-.94,.77-2.01,1.1-3.22,.98l-51.78-4.96c-1.22-.12-2.21-.64-2.98-1.57Zm-3.03,77.73c-5.39-6.53-7.64-14.41-6.75-23.65,.91-9.48,4.56-16.86,10.95-22.13,6.4-5.28,14.21-7.47,23.45-6.58,9.24,.89,16.55,4.53,21.95,10.94,5.4,6.4,7.64,14.35,6.73,23.83-.86,9-4.56,16.25-11.1,21.75-6.54,5.51-14.43,7.82-23.66,6.93-9-.86-16.19-4.55-21.57-11.08Z" fill="#8d93aa"/></g><path d="M1041.16,438.8V213.58c0-104.07,84.37-188.44,188.44-188.44h-45.86c-104.07,0-188.44,84.37-188.44,188.44v225.22s49.42,554.13,262.13,554.13h45.86c-212.72,0-262.13-554.13-262.13-554.13Z" fill="#c8c8db" opacity=".33"/><path d="M1257.52,992.93h287.09s-116.29,0-116.29-103.57v-357.75c0-27.79-11.31-54.86-32.52-72.82-9.64-8.16-21.69-15.05-36.53-18.23-50.88-10.9-101.75,32.71-101.75,32.71l-67.23,116.29,67.23,403.38Z" fill="#c8c8db"/><path d="M1345.52,438.84s-89.64-4.85-89.64,100.54v1527.35c0,68.54-53.17,126.74-121.65,129.63-2.41,.1-4.86,.15-7.36,.15H218.35V686.24c0-136.66,110.78-247.43,247.44-247.43l879.73,.03Z" fill="#efeff4"/><g opacity=".33"><path d="M1345.48,438.84c-.17,0-1.54-.07-3.83,0h3.83Z" fill="#c8c8db"/><path d="M520.11,438.81h-54.32c-136.66,0-247.44,110.77-247.44,247.43v1510.27h54.45V686.24c0-136.61,110.71-247.36,247.31-247.43Z" fill="#c8c8db"/></g><path d="M1132.32,2196.51s-86.01-15.75-86.01-93.27v-125.22H3.33v73.74c0,79.95,64.81,144.76,144.76,144.76h984.23Z" fill="#c8c8db"/><g opacity=".37"><path d="M607.02,1392.72c-2.42-2.92-3.44-6.28-3.07-10.1l2.63-27.44c2.78-28.96,10.88-53.36,24.32-73.24,13.44-19.86,28.81-35.69,46.08-47.5,17.28-11.79,39.72-25.22,67.32-40.27,30.71-15.52,53.39-29.49,68.05-41.94,14.64-12.44,22.88-28.18,24.72-47.24,1.97-20.58-4.48-37.53-19.35-50.89-14.88-13.34-35.65-21.3-62.32-23.85-28.98-2.78-52.66,1.69-71.08,13.38-18.43,11.7-28.66,28.23-30.71,49.55l-1.21,12.58c-.8,8.39-5.78,12.14-14.92,11.26l-161.68-22.41c-3.82-.37-6.91-2.2-9.28-5.5-2.39-3.29-3.38-6.85-3.01-10.68l.33-3.43c4.6-48.01,20.85-89.32,48.79-123.96,27.92-34.62,64.78-60.13,110.59-76.51,45.79-16.38,96.88-21.86,153.29-16.46,55.62,5.33,103.3,19.52,143.02,42.55,39.71,23.04,69.14,52.97,88.3,89.8,19.15,36.84,26.55,78.11,22.17,123.84-3.29,34.3-12.19,62.86-26.67,85.7-14.5,22.83-31.05,41.06-49.66,54.65-18.61,13.61-42.1,27.89-70.45,42.86-28.37,14.99-49.66,28.52-63.89,40.6-14.25,12.1-22.26,27.68-24.09,46.73l-1.54,16c-.36,3.82-2.02,6.93-4.93,9.33-2.94,2.42-6.29,3.44-10.1,3.07l-162.34-15.55c-3.82-.37-6.93-2-9.33-4.93Zm-9.51,243.68c-16.89-20.46-23.94-45.16-21.16-74.14,2.85-29.72,14.3-52.85,34.34-69.39,20.05-16.54,44.53-23.42,73.51-20.64,28.96,2.78,51.89,14.2,68.82,34.29,16.92,20.08,23.96,44.98,21.11,74.7-2.7,28.21-14.31,50.94-34.8,68.2-20.51,17.27-45.23,24.51-74.18,21.73-28.21-2.7-50.75-14.28-67.63-34.75Z" fill="#9197af"/></g><g><path d="M1491.93,1192.68c-.49,0-.89-.4-.89-.89,0-37.56-30.56-68.13-68.12-68.13-.49,0-.89-.4-.89-.89s.4-.89,.89-.89c37.56,0,68.12-30.56,68.12-68.12,0-.49,.4-.89,.89-.89s.89,.4,.89,.89c0,37.56,30.56,68.12,68.13,68.12,.49,0,.89,.4,.89,.89s-.4,.89-.89,.89c-37.56,0-68.13,30.56-68.13,68.13,0,.49-.4,.89-.89,.89Zm-57.85-69.9c29.63,4.77,53.08,28.23,57.85,57.86,4.77-29.63,28.23-53.09,57.86-57.86-29.63-4.77-53.09-28.23-57.86-57.85-4.77,29.63-28.23,53.08-57.85,57.85Z" fill="#767d9b"/><path d="M1491.93,1032.28c-.49,0-.89-.4-.89-.89v-17.14c0-.49,.4-.89,.89-.89s.89,.4,.89,.89v17.14c0,.49-.4,.89-.89,.89Z" fill="#767d9b"/><path d="M1384.22,1123.75c-.49,0-.89-.39-.89-.88,0-.49,.39-.89,.88-.89l17.14-.11h0c.49,0,.89,.39,.89,.88,0,.49-.39,.89-.88,.89l-17.14,.11h0Z" fill="#767d9b"/><path d="M1493.5,1230.79c-.49,0-.88-.39-.89-.88l-.21-17.13c0-.49,.39-.89,.88-.9h.01c.49,0,.88,.39,.89,.88l.21,17.13c0,.49-.39,.89-.88,.9h-.01Z" fill="#767d9b"/><path d="M1582.72,1121.17c-.48,0-.88-.39-.89-.87,0-.49,.38-.9,.87-.91l17.13-.32c.51,0,.9,.38,.91,.87,0,.49-.38,.9-.87,.91l-17.13,.32h-.02Z" fill="#767d9b"/></g><g><path d="M166.26,546.9c-.75,0-1.36-.61-1.36-1.36,0-57.51-46.78-104.3-104.28-104.3-.75,0-1.36-.61-1.36-1.36s.61-1.36,1.36-1.36c57.5,0,104.28-46.78,104.28-104.29,0-.75,.61-1.36,1.36-1.36s1.36,.61,1.36,1.36c0,57.5,46.79,104.29,104.3,104.29,.75,0,1.36,.61,1.36,1.36s-.61,1.36-1.36,1.36c-57.51,0-104.3,46.79-104.3,104.3,0,.75-.61,1.36-1.36,1.36Zm-88.57-107.02c45.36,7.3,81.27,43.22,88.57,88.58,7.3-45.36,43.22-81.28,88.59-88.58-45.36-7.3-81.28-43.22-88.59-88.57-7.3,45.36-43.21,81.27-88.57,88.57Z" fill="#767d9b"/><path d="M166.27,301.32c-.75,0-1.36-.61-1.36-1.36v-26.23c0-.75,.61-1.36,1.36-1.36s1.36,.61,1.36,1.36v26.23c0,.75-.61,1.36-1.36,1.36Z" fill="#767d9b"/><path d="M1.36,441.37c-.75,0-1.36-.6-1.36-1.35,0-.75,.6-1.36,1.35-1.37l26.23-.16h0c.75,0,1.36,.6,1.36,1.35,0,.75-.6,1.36-1.35,1.37l-26.23,.16h0Z" fill="#767d9b"/><path d="M168.66,605.24c-.74,0-1.35-.6-1.36-1.34l-.32-26.23c0-.75,.59-1.37,1.34-1.38h.02c.74,0,1.35,.6,1.36,1.34l.32,26.23c0,.75-.59,1.37-1.34,1.38h-.02Z" fill="#767d9b"/><path d="M305.26,437.41c-.74,0-1.35-.59-1.36-1.34-.01-.75,.58-1.37,1.34-1.39l26.23-.49c.78,.01,1.37,.58,1.39,1.34,.01,.75-.58,1.37-1.34,1.39l-26.23,.49h-.03Z" fill="#767d9b"/></g><g><path d="M296.84,274.53c-.75,0-1.36-.61-1.36-1.36,0-57.51-46.78-104.3-104.28-104.3-.75,0-1.36-.61-1.36-1.36s.61-1.36,1.36-1.36c57.5,0,104.28-46.78,104.28-104.29,0-.75,.61-1.36,1.36-1.36s1.36,.61,1.36,1.36c0,57.5,46.79,104.29,104.3,104.29,.75,0,1.36,.61,1.36,1.36s-.61,1.36-1.36,1.36c-57.51,0-104.3,46.79-104.3,104.3,0,.75-.61,1.36-1.36,1.36Zm-88.57-107.02c45.36,7.3,81.27,43.22,88.57,88.58,7.3-45.36,43.22-81.28,88.59-88.58-45.36-7.3-81.28-43.22-88.59-88.57-7.3,45.36-43.21,81.27-88.57,88.57Z" fill="#767d9b"/><path d="M296.84,28.95c-.75,0-1.36-.61-1.36-1.36V1.36c0-.75,.61-1.36,1.36-1.36s1.36,.61,1.36,1.36V27.59c0,.75-.61,1.36-1.36,1.36Z" fill="#767d9b"/><path d="M131.94,169c-.75,0-1.36-.6-1.36-1.35,0-.75,.6-1.36,1.35-1.37l26.23-.16h0c.75,0,1.36,.6,1.36,1.35,0,.75-.6,1.36-1.35,1.37l-26.23,.16h0Z" fill="#767d9b"/><path d="M299.24,332.87c-.74,0-1.35-.6-1.36-1.34l-.32-26.23c0-.75,.59-1.37,1.34-1.38h.02c.74,0,1.35,.6,1.36,1.34l.32,26.23c0,.75-.59,1.37-1.34,1.38h-.02Z" fill="#767d9b"/><path d="M435.84,165.05c-.74,0-1.35-.59-1.36-1.34-.01-.75,.58-1.37,1.34-1.39l26.23-.49c.78,.01,1.37,.58,1.39,1.34,.01,.75-.58,1.37-1.34,1.39l-26.23,.49h-.03Z" fill="#767d9b"/></g><g><path d="M1639.53,1090.39c-.26,0-.47-.21-.47-.47,0-19.96-16.23-36.19-36.19-36.19-.26,0-.47-.21-.47-.47s.21-.47,.47-.47c19.95,0,36.19-16.23,36.19-36.19,0-.26,.21-.47,.47-.47s.47,.21,.47,.47c0,19.95,16.24,36.19,36.19,36.19,.26,0,.47,.21,.47,.47s-.21,.47-.47,.47c-19.96,0-36.19,16.24-36.19,36.19,0,.26-.21,.47-.47,.47Zm-30.74-37.14c15.74,2.53,28.2,15,30.74,30.74,2.53-15.74,15-28.21,30.74-30.74-15.74-2.53-28.21-15-30.74-30.74-2.53,15.74-15,28.2-30.74,30.74Z" fill="#767d9b"/><path d="M1639.53,1005.18c-.26,0-.47-.21-.47-.47v-9.1c0-.26,.21-.47,.47-.47s.47,.21,.47,.47v9.1c0,.26-.21,.47-.47,.47Z" fill="#767d9b"/><path d="M1582.31,1053.78c-.26,0-.47-.21-.47-.47,0-.26,.21-.47,.47-.48l9.1-.06h0c.26,0,.47,.21,.47,.47,0,.26-.21,.47-.47,.48l-9.1,.06h0Z" fill="#767d9b"/><path d="M1640.36,1110.64c-.26,0-.47-.21-.47-.47l-.11-9.1c0-.26,.21-.47,.47-.48h0c.26,0,.47,.21,.47,.47l.11,9.1c0,.26-.21,.47-.47,.48h0Z" fill="#767d9b"/><path d="M1687.76,1052.4c-.26,0-.47-.21-.47-.46,0-.26,.2-.48,.46-.48l9.1-.17c.27,0,.48,.2,.48,.46,0,.26-.2,.48-.46,.48l-9.1,.17h0Z" fill="#767d9b"/></g></svg>