<?xml version="1.0" encoding="UTF-8"?><svg id="a" xmlns="http://www.w3.org/2000/svg" viewBox="0 0 600.33 475.19"><path d="M295.18,0c-23.28,.47-40,5-51.09,13.12L92.05,94.53,7.52,209.52c-17.81,27.5-5.16,80.63,50.47,46.56l60.94-80.31c77.34-66.7,235.16-36.09,160.31,97.81-36.72,77.5-19.53,115.31,27.81,131.25l21.56-72.5c37.34-84.06,107.03-99.22,104.22-167.03l167.5,12.03-1.56-175.14L295.18,0h0Zm-84.53,161.55c-27.19-.47-53.91,10.78-73.28,27.03l-61.09,80.31c16.72,13.28,33.59,6.09,50.31-10,19.69,10,35-5.47,47.5-36.41,5.16-21.09,12.81-35.94,36.56-60.94h0Zm-124.37,150.01c-.62,0-1.41,0-2.03,.16-5.16,1.09-11.25,6.56-15.31,19.06-4.22,12.5-5.16,30.31-1.41,49.38,3.75,18.91,11.56,35,20.31,45,8.44,9.84,16.25,12.66,21.41,11.56,5.31-.94,11.25-6.56,15.31-18.91,4.22-12.5,5.31-30.47,1.56-49.38-3.91-19.06-11.72-35.16-20.31-45-7.5-8.75-14.37-11.88-19.53-11.88h0Zm145.28,87.14c-12.34,.16-27.81,4.06-42.97,11.41-17.34,8.59-30.94,20.47-38.28,31.41-7.34,10.78-7.97,18.91-5.63,23.75,2.34,4.69,9.22,9.22,22.34,9.84,13.12,.78,30.78-2.81,48.13-11.41s30.94-20.31,38.28-31.25c7.34-10.78,7.97-19.06,5.63-23.75-2.34-4.84-9.22-9.22-22.34-9.84-1.72-.16-3.28-.16-5.16-.16h0Z"/></svg>