<?xml version="1.0" encoding="UTF-8"?><svg id="a" xmlns="http://www.w3.org/2000/svg" viewBox="0 0 800 765.37"><path d="M798.57,289.78c-3.81-12.71-15.25-22.88-29.23-25.42l-232.58-34.32L432.54,20.34c-6.35-12.71-19.06-20.34-33.04-20.34s-26.69,7.63-33.04,20.34l-104.22,210.98L30.91,264.36c-13.98,2.54-25.42,11.44-29.23,25.42-3.81,12.71-1.27,27.96,8.9,38.13l167.77,163.95-39.4,231.31c-2.54,13.98,3.81,27.96,13.98,35.59,11.44,7.63,26.69,8.9,38.13,2.54l208.44-109.3,207.17,109.3c5.08,2.54,11.44,3.81,16.52,3.81,7.63,0,15.25-2.54,21.61-6.35,11.44-7.63,16.52-21.61,13.98-35.59l-39.4-231.31,167.77-163.95c11.44-10.17,15.25-25.42,11.44-38.13Z"/></svg>