<?xml version="1.0" encoding="UTF-8"?><svg id="a" xmlns="http://www.w3.org/2000/svg" viewBox="0 0 68.86 68.51"><path d="M15.92,20.33v-.89c0-3.26,0-6.51,0-9.77,0-.97,.2-1.17,1.19-1.18,.54,0,1.09,0,1.74,0-.16-2.83,.49-5.29,2.8-7.05C23.08,.35,24.72-.12,26.5,.03c2.08,.18,3.75,1.14,5.03,2.79,1.27,1.64,1.52,3.54,1.38,5.67,.64,0,1.2,0,1.76,0,1.03,0,1.24,.21,1.24,1.22,0,3.23,0,6.46,0,9.69v.93h.91c6.74,0,13.47,0,20.21,0,3.19,0,5.75,1.97,6.44,5.02,.2,.87,.17,1.79,.2,2.68,.01,.41,.12,.59,.55,.72,2.86,.89,4.61,3.29,4.61,6.3,0,8.84-.07,17.68,.04,26.52,.04,3.34-2.3,6.95-6.93,6.92-7.31-.04-14.62-.01-21.93-.01-9.29,0-18.58,0-27.87,0-2.29,0-4.21-.73-5.65-2.58-1.07-1.37-1.4-2.97-1.32-4.66,.04-.74-.13-1.09-.93-1.35C1.67,59.07,0,56.6,0,53.87,0,44.88,0,35.89,0,26.9c0-3.73,2.8-6.54,6.55-6.57,2.83-.02,5.66,0,8.49,0h.88ZM6.75,46.32c-.02,.15-.04,.23-.04,.3,0,5.16-.04,10.32,.02,15.48,.03,2.89,2.13,4.83,5.1,4.83,16.78,0,33.56,0,50.34,0,3.11,0,5.16-2.08,5.16-5.19,0-4.88,0-9.77,0-14.65v-.76H6.75ZM62.13,28.46c0-.54,0-.98,0-1.43-.04-3.1-2-5.16-5.11-5.18-6.86-.04-13.72-.01-20.59-.02-.42,0-.59,.12-.71,.55-.59,2.06-2.21,3.44-4.37,3.49-3.63,.09-7.26,.09-10.89,0-2.18-.05-3.75-1.41-4.37-3.49-.12-.4-.28-.58-.72-.56-.72,.03-1.45,0-2.18,0-2.45,.02-4.91-.06-7.36,.1-2.44,.16-4.32,2.24-4.33,4.67-.03,9.14-.03,18.28,0,27.43,0,2.15,1.69,4.19,3.64,4.51v-.9c0-7.39-.01-14.78,.01-22.17,0-.86,.1-1.76,.36-2.58,.88-2.82,3.34-4.44,6.59-4.44,16.28,0,32.56,0,48.83,0h1.18ZM6.74,37.28h60.55c0-1.03,.1-2.02-.02-2.98-.31-2.51-2.43-4.32-5.19-4.31-16.73,.04-33.46,.02-50.19,.02-.23,0-.45,.01-.67,.02-1.15,.06-2.12,.52-2.96,1.29-1.82,1.65-1.6,3.79-1.51,5.96M17.42,13.73c0,2.44,0,4.81,0,7.19,0,2.07,1.35,3.46,3.4,3.47,3.38,.02,6.76,.02,10.14,0,2.05-.01,3.43-1.39,3.45-3.44,.02-2.28,0-4.55,0-6.83,0-.12-.03-.24-.04-.38H17.42Zm13.95-5.29c.28-2.64-.37-4.81-2.71-6.17-2-1.16-4.03-1.05-5.93,.26-2.05,1.43-2.57,3.5-2.28,5.91h10.92Zm3.02,1.66H17.47v2.04h16.92v-2.04Zm-11.69,28.8c-1.39,0-2.62-.02-3.84,.02-.2,0-.46,.25-.58,.46-.91,1.47-1.78,2.95-2.67,4.43-.17,.29-.34,.58-.56,.97,1.36,0,2.58,.01,3.81-.01,.16,0,.38-.13,.47-.27,1.11-1.81,2.19-3.63,3.37-5.6m21.92,5.88c1.37,0,2.57,.03,3.77-.02,.23,0,.52-.25,.65-.47,1-1.61,1.97-3.25,2.94-4.88,.08-.14,.12-.29,.21-.51-1.31,0-2.53,0-3.75,.01-.15,0-.35,.1-.43,.22-1.11,1.83-2.21,3.67-3.39,5.65m-35.51,0c1.36,0,2.56,.02,3.75-.02,.23,0,.53-.24,.66-.46,.96-1.55,1.89-3.12,2.83-4.68,.12-.2,.22-.42,.38-.72-1.34,0-2.56-.01-3.78,.01-.16,0-.39,.14-.47,.28-1.1,1.81-2.19,3.63-3.37,5.59m11.84,0c1.35,0,2.53,.03,3.7-.02,.25-.01,.58-.25,.73-.47,.76-1.2,1.48-2.43,2.2-3.65,.33-.55,.65-1.1,1.02-1.74-.73,0-1.34,.09-1.92-.02-1.71-.32-2.69,.4-3.4,1.93-.62,1.34-1.49,2.57-2.33,3.97m5.91,0c.63,0,1.08,0,1.53,0,.87-.02,1.89,.23,2.57-.14,.65-.36,.94-1.36,1.38-2.09,.7-1.17,1.4-2.34,2.18-3.65-.77,0-1.4,.09-1.99-.02-1.64-.29-2.6,.37-3.3,1.86-.63,1.37-1.53,2.61-2.38,4.04m5.92,0c1.26,0,2.33-.03,3.4,.01,.54,.02,.85-.13,1.12-.62,.89-1.56,1.84-3.09,2.76-4.63,.11-.18,.19-.37,.32-.64-1.31,0-2.51,0-3.71,.01-.17,0-.42,.09-.5,.22-1.12,1.82-2.22,3.66-3.41,5.65m5.92,0c1.3,0,2.42-.02,3.54,.01,.47,.01,.71-.17,.94-.56,.93-1.6,1.89-3.18,2.84-4.77,.09-.16,.16-.33,.28-.57-1.3,0-2.5-.01-3.7,.01-.18,0-.44,.14-.54,.29-1.11,1.8-2.19,3.62-3.36,5.58m19.51-5.88c-1.37,0-2.57-.02-3.76,.02-.23,0-.52,.25-.66,.46-.72,1.14-1.4,2.3-2.09,3.45-.36,.61-.72,1.22-1.15,1.94,1.37,0,2.59,0,3.8-.01,.16,0,.4-.12,.48-.25,1.11-1.82,2.21-3.66,3.38-5.62m5.91,0c-1.29,0-2.43,.02-3.57-.01-.44-.01-.67,.15-.89,.52-.95,1.62-1.92,3.22-2.88,4.83-.09,.15-.15,.33-.25,.55,.6,0,1.11-.08,1.6,.01,1.85,.34,3.01-.36,3.77-2.1,.56-1.29,1.42-2.44,2.22-3.79m3.17,.05q-1.34-.14-2,.96c-.85,1.42-1.7,2.83-2.54,4.25-.11,.18-.18,.37-.29,.58h4.83v-5.78ZM6.75,44.89c.32-.15,.62-.2,.73-.37,1.12-1.82,2.21-3.66,3.35-5.56H6.75v5.92Z" fill="#727579"/><path d="M22.24,52.92H12.4c-.2,0-.45,.07-.59-.02-.26-.17-.65-.44-.64-.65,.02-.28,.33-.58,.58-.8,.12-.1,.39-.03,.59-.03,6.59,0,13.17,0,19.76,0,.18,0,.4-.07,.52,.02,.27,.21,.66,.49,.67,.74,0,.24-.4,.53-.68,.72-.14,.09-.39,.02-.59,.02h-9.77" fill="#727579"/><path d="M22.22,55.14c3.25,0,6.51,0,9.77,0,.23,0,.5-.07,.66,.03,.27,.16,.6,.42,.64,.68,.03,.21-.27,.55-.51,.71-.18,.12-.48,.08-.73,.08-6.56,0-13.12,0-19.68,0-.25,0-.57,.05-.73-.08-.23-.2-.48-.53-.47-.81,0-.21,.36-.48,.62-.59,.23-.1,.54-.03,.82-.03,3.21,0,6.41,0,9.62,0" fill="#727579"/><path d="M17.05,60.32c-1.65,0-3.3,0-4.95,0-.52,0-.98-.1-.98-.74,.01-.62,.45-.77,.98-.77,3.27,0,6.55,0,9.82,0,.57,0,1.04,.18,1.03,.81-.02,.6-.5,.71-1.03,.71-1.62-.01-3.25,0-4.87,0" fill="#727579"/><path d="M24.1,60.33c-.19-.3-.56-.63-.52-.9,.04-.28,.48-.51,.74-.75,.25,.27,.67,.52,.69,.81,.02,.27-.38,.57-.6,.86h-.32" fill="#727579"/><path d="M25.96,15.19c1.34,.01,2.51,.93,2.84,2.23,.33,1.28-.27,2.69-1.47,3.3-.44,.23-.73,.42-.68,.98,.04,.47-.17,.85-.72,.86-.58,0-.82-.38-.79-.88,.03-.51-.18-.73-.61-.94-1.27-.64-1.86-2.07-1.49-3.42,.35-1.27,1.55-2.14,2.92-2.13m-.05,4.39c.8,0,1.43-.61,1.45-1.4,.02-.82-.63-1.48-1.45-1.48-.82,0-1.45,.65-1.43,1.49,.02,.81,.62,1.4,1.44,1.4" fill="#727579"/><path d="M27.36,18.18c-.02,.79-.65,1.4-1.45,1.4-.82,0-1.42-.59-1.43-1.4" fill="#727579"/></svg>