<?xml version="1.0" encoding="UTF-8"?><svg id="a" xmlns="http://www.w3.org/2000/svg" viewBox="0 0 533.33 683.33"><path d="M288.77,0h-44.2C208.93,0,194.9,3,180.53,9c-14.4,6.03-26.4,15.1-36.13,27.33-9.73,12.17-16.43,24.87-26.13,59.13l-6,21.2H33.33C14.92,116.67,0,131.59,0,150s14.92,33.33,33.33,33.33h18.77l23.43,375c2.73,44,4.1,66,13.57,82.7,8.32,14.7,20.91,26.52,36.1,33.9,17.23,8.4,39.3,8.4,83.4,8.4h116.13c44.1,0,66.17,0,83.4-8.4,15.19-7.38,27.78-19.2,36.1-33.9,9.47-16.67,10.83-38.67,13.57-82.73l23.43-374.97h18.77c18.41,0,33.33-14.92,33.33-33.33s-14.92-33.33-33.33-33.33h-78.9l-6-21.2c-9.73-34.27-16.43-46.97-26.17-59.17-9.51-12.04-21.95-21.44-36.13-27.3-14.37-6-28.4-9-64-9h-.03Zm63,116.67l-.83-3c-6.77-23.9-9.67-30.17-14.13-35.8-2.53-3.28-5.89-5.82-9.73-7.37-6.67-2.8-13.47-3.83-38.3-3.83h-44.2c-24.83,0-31.67,1.03-38.3,3.83-3.84,1.54-7.2,4.09-9.73,7.37-4.5,5.63-7.37,11.9-14.13,35.8l-.87,3h170.23Zm-164.77,116.87c-13.8,.47-24.6,12.04-24.13,25.84v.03l9.9,283.17c.62,13.79,12.3,24.48,26.09,23.86,13.61-.61,24.23-12.01,23.88-25.63l-9.9-283.13c-.47-13.8-12.04-24.6-25.83-24.13h0Zm133.6,24.13c.64-13.79,12.33-24.46,26.13-23.82,13.57,.63,24.16,11.97,23.84,25.55l-9.9,283.17c-.62,13.79-12.3,24.48-26.09,23.86-13.61-.61-24.23-12.01-23.88-25.63l9.9-283.13h0Z" fill-rule="evenodd"/></svg>