<?xml version="1.0" encoding="UTF-8"?><svg id="a" xmlns="http://www.w3.org/2000/svg" viewBox="0 0 650.03 650.08"><path d="M5.01,285.07c22.16-29.69,51.71-53.05,85.71-67.76-50.98-46.55-54.58-125.61-8.03-176.59,46.55-50.98,125.61-54.58,176.59-8.03,50.98,46.55,54.58,125.61,8.03,176.59-2.55,2.8-5.23,5.47-8.03,8.03,24.55,10.59,46.85,25.76,65.72,44.7,18.87-18.94,41.17-34.11,65.72-44.7-50.98-46.55-54.58-125.61-8.03-176.59,46.55-50.98,125.61-54.58,176.59-8.03,50.98,46.55,54.58,125.61,8.03,176.59-2.55,2.8-5.23,5.47-8.03,8.03,34,14.7,63.55,38.06,85.71,67.75,8.31,11.03,6.1,26.7-4.93,35.01-11.03,8.31-26.7,6.1-35.01-4.93l-.04-.05c-53.86-71.81-155.74-86.35-227.54-32.49-12.32,9.24-23.26,20.18-32.5,32.5-.04,.05-.09,.1-.13,.15-.51,.66-1.04,1.29-1.61,1.9-.19,.2-.38,.39-.57,.58-.44,.44-.89,.86-1.37,1.27-.28,.24-.55,.47-.84,.7-.15,.12-.28,.25-.44,.36-.29,.21-.59,.39-.88,.59-.32,.22-.63,.44-.96,.65-.51,.32-1.04,.6-1.56,.88-.26,.14-.52,.29-.78,.42-1.62,.78-3.32,1.38-5.06,1.79-.25,.06-.51,.1-.76,.15-.61,.12-1.22,.24-1.83,.31-.34,.04-.69,.07-1.03,.1-.52,.04-1.03,.08-1.55,.09-.21,0-.42,.04-.63,.04-.14,0-.28-.03-.43-.03-1.08-.01-2.15-.1-3.22-.25-.29-.04-.58-.11-.88-.17-.88-.16-1.76-.37-2.62-.63-.29-.09-.59-.16-.89-.26-1.03-.36-2.03-.78-3-1.26-.29-.14-.58-.29-.87-.45-1.01-.54-1.98-1.15-2.9-1.83-.07-.05-.14-.08-.2-.13-.36-.27-.69-.58-1.04-.86-.2-.17-.41-.33-.6-.5-.52-.46-1-.95-1.48-1.45-.08-.09-.17-.17-.25-.26-.68-.73-1.32-1.5-1.91-2.31-54.07-71.63-155.98-85.87-227.61-31.79-12.16,9.18-22.96,20.02-32.1,32.2-8.29,11.04-23.96,13.27-35,4.97s-13.27-23.96-4.97-35h0Zm554.28,257.24c50.98-46.55,54.58-125.61,8.03-176.59-46.55-50.98-125.61-54.58-176.59-8.03-50.98,46.55-54.58,125.61-8.03,176.59,2.55,2.8,5.23,5.47,8.03,8.03-24.55,10.59-46.85,25.76-65.72,44.7-18.87-18.94-41.17-34.11-65.72-44.7,50.98-46.55,54.58-125.61,8.03-176.59-46.55-50.98-125.61-54.58-176.59-8.03-50.98,46.55-54.58,125.61-8.03,176.59,2.55,2.8,5.23,5.47,8.03,8.03-34,14.71-63.56,38.07-85.71,67.76-8.29,11.04-6.07,26.71,4.97,35,4.33,3.25,9.6,5.01,15.01,5.01H625.02c13.81,0,25-11.2,25-25,0-5.42-1.76-10.69-5.01-15.02-22.16-29.69-51.71-53.05-85.71-67.75Z"/></svg>