<?xml version="1.0" encoding="UTF-8"?><svg id="a" xmlns="http://www.w3.org/2000/svg" viewBox="0 0 666.67 666.67"><path d="M0,333.33C0,149.24,149.24,0,333.33,0s333.33,149.24,333.33,333.33-149.24,333.33-333.33,333.33S0,517.43,0,333.33Zm256.9-123.57c-13.02-13.02-34.12-13.02-47.14,0-13.02,13.02-13.02,34.12,0,47.14l76.43,76.43-76.43,76.43c-13.02,13.02-13.02,34.12,0,47.14,13.02,13.02,34.12,13.02,47.14,0l76.43-76.43,76.43,76.43c13.02,13.02,34.12,13.02,47.14,0,13.02-13.02,13.02-34.12,0-47.14l-76.43-76.43,76.43-76.43c13.02-13.02,13.02-34.12,0-47.14-13.02-13.02-34.12-13.02-47.14,0l-76.43,76.43-76.43-76.43Z" fill="#070707" fill-rule="evenodd"/></svg>