<svg width="16" height="16" viewBox="0 0 16 16" fill="none" xmlns="http://www.w3.org/2000/svg">
<path fill-rule="evenodd" clip-rule="evenodd" d="M3.80746 7.58273C1.71139 7.58273 0 9.3115 0 11.4243C0 13.5434 1.71139 15.273 3.80746 15.273C5.90999 15.273 7.61492 13.5427 7.61492 11.4243C7.61492 9.3125 5.90999 7.58273 3.80746 7.58273ZM3.80746 8.31007C5.51252 8.31007 6.88768 9.70185 6.88768 11.4242C6.88768 13.1543 5.51239 14.5455 3.80746 14.5455C2.11038 14.5455 0.727238 13.1534 0.727238 11.4242C0.727238 9.70273 2.11042 8.31007 3.80746 8.31007Z" fill="black"/>
<path fill-rule="evenodd" clip-rule="evenodd" d="M13.1337 3.49216C11.5519 3.49216 10.2673 4.79465 10.2673 6.38582C10.2673 7.98305 11.5519 9.28646 13.1337 9.28646C14.7155 9.28646 16 7.98305 16 6.38582C16 4.79465 14.7156 3.49216 13.1337 3.49216ZM13.1337 4.21949C14.3184 4.21949 15.2726 5.18326 15.2726 6.38569C15.2726 7.59637 14.3184 8.55922 13.1337 8.55922C11.9491 8.55922 10.9947 7.59637 10.9947 6.38569C10.9947 5.18313 11.9491 4.21949 13.1337 4.21949Z" fill="black"/>
<path fill-rule="evenodd" clip-rule="evenodd" d="M6.79505 0C5.41152 0 4.28516 1.14513 4.28516 2.53727C4.28516 3.92944 5.41148 5.07453 6.79505 5.07453C8.17862 5.07453 9.30482 3.92941 9.30482 2.53727C9.30482 1.14509 8.17872 0 6.79505 0ZM6.79505 0.727206C7.77872 0.727206 8.57758 1.53496 8.57758 2.53727C8.57758 3.5397 7.77872 4.3472 6.79505 4.3472C5.81139 4.3472 5.01252 3.5397 5.01252 2.53727C5.01252 1.53483 5.81139 0.727206 6.79505 0.727206Z" fill="black"/>
<path fill-rule="evenodd" clip-rule="evenodd" d="M4.84474 9.04118C4.68367 9.04727 4.54568 9.15875 4.50597 9.31513C4.46627 9.47138 4.53425 9.63524 4.673 9.71743C5.6828 10.3348 5.99452 11.8828 4.99336 12.8107V12.8108C4.92082 12.8759 4.87757 12.9673 4.87313 13.0647C4.86869 13.162 4.90344 13.2571 4.96965 13.3285C5.03598 13.4001 5.12805 13.4419 5.22546 13.4448C5.32286 13.4477 5.41734 13.4115 5.48773 13.3441C6.83945 12.0913 6.46669 9.962 5.05221 9.09706H5.05234C4.99032 9.058 4.91803 9.03859 4.84473 9.04126L4.84474 9.04118Z" fill="black"/>
<path fill-rule="evenodd" clip-rule="evenodd" d="M13.6672 4.71457C13.5126 4.7166 13.376 4.81603 13.3269 4.96264C13.2777 5.10925 13.3266 5.27095 13.4489 5.36569C13.8362 5.67477 14.0164 5.99196 14.0432 6.31575C14.07 6.63954 13.9452 7.01393 13.5719 7.44439C13.4413 7.5962 13.4579 7.82513 13.6093 7.9564C13.7608 8.08767 13.9897 8.07181 14.1216 7.92089C14.5826 7.38923 14.8143 6.81586 14.768 6.25592C14.7217 5.69599 14.3993 5.19362 13.9025 4.79716H13.9024C13.8362 4.74275 13.7529 4.71356 13.6672 4.71457Z" fill="black"/>
<path fill-rule="evenodd" clip-rule="evenodd" d="M7.46781 1.27942C7.31308 1.27663 7.17357 1.372 7.11992 1.51709C7.0664 1.66218 7.11041 1.82528 7.22975 1.92368C7.56926 2.21195 7.60491 2.90137 7.27528 3.19017C7.20172 3.25345 7.15644 3.3435 7.1496 3.4404C7.14275 3.53717 7.17496 3.63266 7.23888 3.70572C7.3028 3.77864 7.39336 3.82303 7.49012 3.82899C7.58702 3.83495 7.68227 3.80185 7.75468 3.73717C8.46604 3.11383 8.40202 1.96464 7.70053 1.36919C7.63585 1.31275 7.55355 1.28107 7.46781 1.27942Z" fill="black"/>
</svg>
