<svg width="21" height="20" viewBox="0 0 21 20" fill="none" xmlns="http://www.w3.org/2000/svg">
<path fill-rule="evenodd" clip-rule="evenodd" d="M15.3214 0H6.43251C3.36426 0 0.876953 2.48731 0.876953 5.55556V14.4444C0.876953 17.5127 3.36426 20 6.43251 20H15.3214C18.3896 20 20.877 17.5127 20.877 14.4444V5.55556C20.877 2.48731 18.3896 0 15.3214 0ZM18.9325 14.4444C18.9264 16.4362 17.3132 18.0494 15.3214 18.0556H6.43251C4.44068 18.0494 2.8275 16.4362 2.8214 14.4444V5.55556C2.8275 3.56372 4.44068 1.95054 6.43251 1.94444H15.3214C17.3132 1.95054 18.9264 3.56372 18.9325 5.55556V14.4444ZM16.1547 5.83333C16.7684 5.83333 17.2658 5.33587 17.2658 4.72222C17.2658 4.10858 16.7684 3.61111 16.1547 3.61111C15.5411 3.61111 15.0436 4.10858 15.0436 4.72222C15.0436 5.33587 15.5411 5.83333 16.1547 5.83333ZM10.877 5C8.11553 5 5.87695 7.23858 5.87695 10C5.87695 12.7614 8.11553 15 10.877 15C13.6384 15 15.877 12.7614 15.877 10C15.88 8.673 15.3541 7.39952 14.4157 6.4612C13.4774 5.52288 12.204 4.99704 10.877 5ZM7.8214 10C7.8214 11.6876 9.1894 13.0556 10.877 13.0556C12.5645 13.0556 13.9325 11.6876 13.9325 10C13.9325 8.31244 12.5645 6.94444 10.877 6.94444C9.1894 6.94444 7.8214 8.31244 7.8214 10Z" fill="#C4C4C4"/>
</svg>
