<svg width="7" height="18" viewBox="0 0 7 18" fill="none" xmlns="http://www.w3.org/2000/svg">
<path d="M5.83055 18H0.805857C0.361346 18 -0.000244141 17.6384 -0.000244141 17.1939V10.2802C-0.000244141 10.0824 0.16017 9.92197 0.358023 9.92197H6.27839C6.47624 9.92197 6.63665 10.0824 6.63665 10.2802V17.1939C6.63665 17.6384 6.27506 18 5.83055 18ZM0.71629 10.6385V17.1939C0.71629 17.2432 0.756525 17.2835 0.805857 17.2835H5.83055C5.87988 17.2835 5.92012 17.2432 5.92012 17.1939V10.6385H0.71629Z" fill="black"/>
<path d="M5.36329 10.6385H1.27416C1.07631 10.6385 0.915894 10.4781 0.915894 10.2802V5.12252C0.915894 4.92467 1.07631 4.76425 1.27416 4.76425H5.36329C5.56114 4.76425 5.72155 4.92467 5.72155 5.12252V10.2802C5.72155 10.4781 5.56114 10.6385 5.36329 10.6385ZM1.63243 9.92195H5.00502V5.4807H1.63243V9.92195Z" fill="black"/>
<path d="M4.7471 0.842659C4.60016 0.842659 4.47385 0.754141 4.41858 0.627663C4.38621 0.568536 4.371 0.500662 4.37537 0.432085C4.38219 0.329048 4.43327 0.233883 4.51514 0.171258C4.62378 0.088512 4.77649 0.0687445 4.8986 0.129099C5.02088 0.189453 5.10537 0.308582 5.10537 0.444857V0.484392C5.10537 0.682245 4.94496 0.842659 4.7471 0.842659Z" fill="black"/>
<path d="M4.74702 5.48216H1.88805C1.6902 5.48216 1.52979 5.32174 1.52979 5.12389V2.7845C1.52979 2.63335 1.6246 2.49848 1.767 2.4474C1.894 2.40157 2.03482 2.43148 2.13209 2.5221C2.29303 2.53924 2.8243 2.35661 3.47715 1.81989C4.00703 1.38098 4.32629 0.939631 4.40713 0.697174C4.46258 0.530459 4.62842 0.428998 4.8044 0.456638C4.97777 0.484803 5.10529 0.634549 5.10529 0.810355V5.12389C5.10529 5.32174 4.94488 5.48216 4.74702 5.48216ZM2.24632 4.76562H4.38876V1.95197C4.25108 2.09437 4.09801 2.23607 3.93304 2.37252C3.38023 2.82698 2.74225 3.18368 2.24632 3.23057V4.76562Z" fill="black"/>
<path d="M2.1387 3.23579C1.92266 3.23579 1.73967 3.16809 1.61129 3.0124C1.18357 2.48427 1.84482 1.55273 2.68922 0.862438C3.53066 0.171251 4.57326 -0.296332 5.00381 0.218856C5.01273 0.229527 5.02095 0.240548 5.02847 0.252094C5.07815 0.320317 5.10492 0.400788 5.10492 0.484407V0.81031C5.10492 0.848796 5.09879 0.887104 5.08655 0.923491C4.94432 1.35051 4.51292 1.89211 3.93266 2.37246C3.3391 2.86037 2.64742 3.23575 2.13868 3.23575L2.1387 3.23579ZM4.38835 0.720398C4.16198 0.762033 3.69541 0.963035 3.14332 1.41665C2.5769 1.87971 2.28948 2.30846 2.21353 2.51787C2.43343 2.48411 2.91014 2.28538 3.47674 1.81987C3.97285 1.40895 4.28423 0.995951 4.3883 0.74597L4.38835 0.720398Z" fill="black"/>
<path d="M4.7465 1.16867C4.72656 1.16867 4.70627 1.1671 4.68597 1.1636C4.51384 1.13421 4.38806 0.984987 4.38806 0.810404V0.484502C4.38806 0.323913 4.49495 0.182913 4.64959 0.139531C4.80318 0.0963222 4.96849 0.160698 5.05229 0.298024C5.12576 0.418729 5.19101 0.626201 5.0843 0.92938C5.03305 1.07475 4.89625 1.16867 4.7465 1.16867Z" fill="black"/>
</svg>
