<svg width="129" height="128" viewBox="0 0 129 128" fill="none" xmlns="http://www.w3.org/2000/svg">
<g opacity="0.9">
<path d="M66.1586 3.34707L66.2268 9.70909L62.0642 9.75368L62.0527 8.68123L65.052 8.6491L65.0068 4.43199L61.9712 4.46451L61.9597 3.39205L66.1586 3.34707ZM65.6425 6.07949L65.6538 7.13377L62.5001 7.16755L62.4888 6.11328L65.6425 6.07949Z" fill="#6B30A8"/>
<path d="M54.9016 4.20975L57.2464 6.76658L60.23 9.89569L58.7715 10.0974L56.4767 7.57039L53.4431 4.41149L54.9016 4.20975ZM59.4033 3.58708L57.4739 7.34988L56.5472 6.75318L58.0348 3.77637L59.4033 3.58708ZM56.2517 7.00509L57.1657 7.57603L55.7733 10.5121L54.4048 10.7014L56.2517 7.00509Z" fill="#6B30A8"/>
<path d="M50.8473 5.05632L52.5337 11.1911L49.9834 11.8922C49.6328 11.9886 49.294 11.9906 48.967 11.8982C48.6341 11.8075 48.3428 11.6394 48.0931 11.3938C47.8433 11.1482 47.6687 10.8443 47.5691 10.4821C47.4679 10.114 47.4611 9.75768 47.5486 9.41313C47.6377 9.07442 47.8013 8.77807 48.0394 8.52409C48.2717 8.27172 48.5631 8.09735 48.9137 8.00098L50.3247 7.6131L49.7079 5.36951L50.8473 5.05632ZM50.6138 8.66478L49.2817 9.03098C49.1356 9.07113 49.0154 9.14817 48.921 9.26209C48.8208 9.37761 48.7541 9.5122 48.7209 9.66586C48.6819 9.82112 48.6857 9.98347 48.7323 10.1529C48.7789 10.3223 48.8578 10.4609 48.9691 10.5686C49.0761 10.6837 49.2015 10.7623 49.345 10.8046C49.4844 10.8542 49.6271 10.859 49.7731 10.8188L51.1053 10.4526L50.6138 8.66478Z" fill="#6B30A8"/>
<path d="M43.2651 7.44695L45.6894 13.3294L44.597 13.7796L42.5883 8.90558L39.874 10.0242L39.4584 9.01581L43.2651 7.44695Z" fill="#6B30A8"/>
<path d="M34.4497 11.6119C34.8418 11.3822 35.2465 11.2399 35.6638 11.1851C36.0811 11.1302 36.4888 11.1548 36.8868 11.2587C37.2826 11.371 37.6495 11.5598 37.9876 11.8253C38.3257 12.0907 38.6142 12.4273 38.8531 12.8351C39.092 13.2429 39.2445 13.6592 39.3107 14.0839C39.3769 14.5086 39.3607 14.9184 39.2619 15.3133C39.1611 15.7165 38.9847 16.0867 38.7327 16.4239C38.4808 16.7611 38.1588 17.0445 37.7667 17.2743C37.3693 17.507 36.962 17.6508 36.5447 17.7057C36.1274 17.7605 35.7208 17.7319 35.325 17.6196C34.9292 17.5074 34.5622 17.3185 34.2241 17.0531C33.8891 16.7929 33.6022 16.4589 33.3633 16.0511C33.1274 15.6485 32.9764 15.2348 32.9102 14.8101C32.844 14.3854 32.8587 13.973 32.9544 13.5729C33.05 13.1727 33.2238 12.8041 33.4758 12.4669C33.7277 12.1297 34.0523 11.8447 34.4497 11.6119ZM35.0193 12.5844C34.7684 12.7314 34.567 12.9091 34.4151 13.1174C34.2611 13.3341 34.1573 13.5704 34.1037 13.8266C34.0532 14.0879 34.0519 14.3555 34.1 14.6293C34.1428 14.9062 34.2423 15.178 34.3985 15.4446C34.5547 15.7113 34.7431 15.931 34.9637 16.1037C35.179 16.2795 35.4115 16.4067 35.6611 16.4852C35.9138 16.5689 36.1708 16.5939 36.432 16.5603C36.691 16.535 36.946 16.4488 37.197 16.3018C37.4427 16.1578 37.6426 15.9775 37.7966 15.7609C37.9537 15.5495 38.059 15.3158 38.1126 15.0596C38.1662 14.8035 38.169 14.5385 38.121 14.2647C38.0729 13.9909 37.9693 13.718 37.81 13.4462C37.6538 13.1795 37.4665 12.9557 37.2481 12.7746C37.0327 12.5988 36.8002 12.4717 36.5506 12.3932C36.301 12.3147 36.044 12.2896 35.7797 12.318C35.5185 12.3517 35.2651 12.4405 35.0193 12.5844Z" fill="#6B30A8"/>
<path d="M28.4912 15.6531L32.4976 20.5956L30.3512 22.3355C30.0546 22.5759 29.7267 22.7247 29.3675 22.7819C29.0121 22.8438 28.6664 22.812 28.3306 22.6864C27.9939 22.5693 27.7054 22.3625 27.465 22.066C27.2361 21.7835 27.0972 21.4631 27.0486 21.1048C26.999 20.755 27.0394 20.4102 27.1697 20.0706C27.2991 19.7395 27.5144 19.4518 27.8157 19.2076L29.0654 18.1946L27.5945 16.38L28.4912 15.6531ZM25.6245 17.9768L28.69 19.1892L27.8869 20.1327L24.5315 18.8512L25.6245 17.9768ZM29.7122 18.9924L28.4554 20.0112C28.3189 20.1219 28.226 20.2479 28.1767 20.3892C28.1266 20.539 28.1191 20.6933 28.1542 20.8521C28.1892 21.0109 28.2621 21.1585 28.3728 21.295C28.4987 21.4503 28.6427 21.5559 28.8049 21.6116C28.9671 21.6673 29.1385 21.6766 29.319 21.6395C29.4995 21.6024 29.6721 21.5171 29.8369 21.3835L30.9313 20.4964L29.7122 18.9924Z" fill="#6B30A8"/>
<path d="M22.1331 21.2144L26.7501 25.592L23.8859 28.6129L23.1076 27.8749L25.1713 25.6984L22.1109 22.7966L20.0222 24.9996L19.2439 24.2616L22.1331 21.2144ZM23.7366 23.4863L24.5017 24.2117L22.3316 26.5004L21.5665 25.775L23.7366 23.4863Z" fill="#6B30A8"/>
<path d="M7.05982 48.0522L10.1219 48.8803L9.67539 48.8255L13.8565 47.2916L13.4958 48.6252L10.2634 49.7848L10.4012 49.3796L12.6321 51.8189L12.2857 53.0999L9.32261 49.747L9.88364 50.0399L6.75135 49.1928L7.05982 48.0522Z" fill="#6B30A8"/>
<path d="M4.67437 53.3161C4.82196 52.8863 5.03609 52.5146 5.31677 52.2009C5.59745 51.8873 5.92256 51.6401 6.29211 51.4595C6.66541 51.2866 7.06677 51.1906 7.49618 51.1714C7.92559 51.1523 8.3638 51.2195 8.81081 51.373C9.25783 51.5265 9.64488 51.7427 9.97196 52.0216C10.299 52.3004 10.5539 52.6218 10.7365 52.9856C10.9228 53.3571 11.0304 53.7528 11.0592 54.1727C11.088 54.5926 11.0286 55.0175 10.881 55.4473C10.7314 55.8829 10.5163 56.2575 10.2357 56.5711C9.95497 56.8848 9.62798 57.1281 9.25467 57.301C8.88136 57.4739 8.48001 57.57 8.0506 57.5891C7.62692 57.6102 7.19158 57.544 6.74456 57.3905C6.30328 57.239 5.91909 57.0238 5.59201 56.7449C5.26493 56.466 5.00723 56.1437 4.8189 55.7779C4.63057 55.4121 4.52201 55.0193 4.49322 54.5993C4.46443 54.1794 4.52481 53.7517 4.67437 53.3161ZM5.74033 53.6822C5.64587 53.9573 5.60898 54.2233 5.62966 54.4802C5.6541 54.7449 5.72949 54.9918 5.85581 55.221C5.98786 55.4521 6.16136 55.6558 6.37631 55.8322C6.58929 56.0142 6.84192 56.1554 7.1342 56.2558C7.42648 56.3561 7.71256 56.3999 7.99244 56.3871C8.27036 56.38 8.52955 56.3249 8.77001 56.2216C9.0162 56.1204 9.22736 55.9719 9.4035 55.7761C9.58341 55.588 9.72059 55.3564 9.81505 55.0813C9.90754 54.812 9.94156 54.545 9.91712 54.2803C9.8984 54.0176 9.82589 53.7717 9.69956 53.5425C9.57324 53.3133 9.40261 53.1106 9.18766 52.9343C8.97271 52.758 8.71624 52.6186 8.41823 52.5163C8.12595 52.416 7.83798 52.3683 7.55433 52.3734C7.27642 52.3805 7.01723 52.4357 6.77677 52.5389C6.53631 52.6421 6.32515 52.7906 6.14327 52.9845C5.96713 53.1802 5.83282 53.4128 5.74033 53.6822Z" fill="#6B30A8"/>
<path d="M3.81824 61.4607C3.86866 60.9603 4.01913 60.5248 4.26963 60.1541C4.52615 59.7841 4.85286 59.5034 5.24973 59.312C5.65203 59.1272 6.09132 59.0588 6.5676 59.1068L10.4743 59.5005L10.3549 60.6851L6.52961 60.2997C6.24626 60.2711 5.98666 60.3089 5.75084 60.413C5.52043 60.5238 5.32798 60.681 5.17347 60.8847C5.01897 61.0884 4.92895 61.3168 4.90344 61.57C4.87549 61.8473 4.9166 62.1042 5.02676 62.3407C5.13691 62.5771 5.29413 62.7695 5.49842 62.918C5.70812 63.0731 5.95465 63.165 6.23801 63.1935L10.0633 63.579L9.94851 64.7185L6.0418 64.3248C5.56551 64.2768 5.14901 64.1191 4.79227 63.8517C4.44096 63.591 4.17653 63.2538 3.99898 62.84C3.82745 62.4269 3.76721 61.9671 3.81824 61.4607Z" fill="#6B30A8"/>
<path d="M2.88305 65.8269L9.24405 65.6943L9.30166 68.4568C9.30961 68.8384 9.22601 69.1887 9.05083 69.5075C8.88172 69.8262 8.64457 70.0796 8.3394 70.2678C8.04041 70.4619 7.70009 70.5629 7.31843 70.5709C6.95494 70.5785 6.61676 70.4916 6.30388 70.3102C5.99718 70.1348 5.74968 69.8915 5.56137 69.5802C5.37924 69.2749 5.28414 68.9284 5.27605 68.5407L5.24251 66.9323L2.90711 66.981L2.88305 65.8269ZM2.95998 69.5163L5.79779 67.8389L6.05036 69.0518L2.98008 70.9159L2.95998 69.5163ZM6.26936 66.9109L6.30309 68.5284C6.30675 68.7041 6.34929 68.8547 6.43069 68.9803C6.51829 69.1118 6.63554 69.2124 6.78245 69.282C6.92936 69.3517 7.09066 69.3847 7.26634 69.381C7.46626 69.3769 7.63797 69.3278 7.78147 69.2339C7.92497 69.14 8.03742 69.0104 8.11882 68.8451C8.20022 68.6797 8.23871 68.4911 8.23429 68.279L8.20492 66.8705L6.26936 66.9109Z" fill="#6B30A8"/>
<path d="M8.23345 85.7169L14.1279 83.3221L15.1235 85.7725C15.2603 86.1094 15.3021 86.4456 15.2488 86.7812C15.1977 87.1224 15.0649 87.4314 14.8504 87.7083C14.6358 87.9851 14.3545 88.1942 14.0065 88.3356C13.6528 88.4793 13.2997 88.5279 12.9473 88.4814C12.6005 88.4327 12.287 88.305 12.0068 88.0983C11.7289 87.8973 11.5215 87.6283 11.3847 87.2915L10.8339 85.9358L8.67819 86.8116L8.23345 85.7169ZM11.8444 85.5252L12.3644 86.8052C12.4214 86.9455 12.512 87.0559 12.6362 87.1362C12.7627 87.2222 12.9042 87.2726 13.0607 87.2875C13.2194 87.308 13.3802 87.2852 13.543 87.2191C13.7058 87.153 13.8342 87.0583 13.928 86.9351C14.0298 86.8153 14.0932 86.6816 14.1183 86.5341C14.1512 86.3899 14.1392 86.2476 14.0822 86.1073L13.5622 84.8273L11.8444 85.5252Z" fill="#6B30A8"/>
<path d="M11.2879 92.5216L16.8578 89.4464L18.1933 91.8654C18.3778 92.1995 18.4666 92.5485 18.4598 92.9122C18.4582 93.273 18.3661 93.6076 18.1835 93.9161C18.009 94.227 17.7547 94.4747 17.4205 94.6592C17.1022 94.8349 16.7624 94.9152 16.4011 94.9002C16.048 94.8875 15.7158 94.7871 15.4043 94.5991C15.1011 94.4135 14.8558 94.151 14.6684 93.8115L13.8908 92.4031L11.8459 93.5321L11.2879 92.5216ZM13.0715 95.7521L14.804 92.9476L15.5915 93.904L13.7401 96.9819L13.0715 95.7521ZM14.7899 91.9067L15.5719 93.323C15.6568 93.4769 15.7645 93.5904 15.895 93.6638C16.0337 93.7395 16.1843 93.774 16.3467 93.7674C16.5092 93.7607 16.6673 93.715 16.8212 93.63C16.9962 93.5334 17.1254 93.4101 17.2088 93.2603C17.2922 93.1104 17.3315 92.9434 17.3267 92.7591C17.3218 92.5749 17.2682 92.39 17.1657 92.2043L16.4848 90.971L14.7899 91.9067Z" fill="#6B30A8"/>
<path d="M16.347 100.785C16.0895 100.41 15.9182 100.017 15.8332 99.6046C15.7482 99.1924 15.7431 98.784 15.8179 98.3795C15.9011 97.9766 16.0628 97.5969 16.303 97.2405C16.5432 96.884 16.8579 96.5718 17.2473 96.304C17.6367 96.0361 18.0408 95.8537 18.4596 95.7569C18.8784 95.66 19.2883 95.6465 19.6893 95.7162C20.0988 95.7876 20.4808 95.9367 20.8354 96.1634C21.19 96.3902 21.496 96.6908 21.7536 97.0652C22.0146 97.4446 22.1876 97.8404 22.2726 98.2527C22.3576 98.6649 22.3585 99.0725 22.2753 99.4754C22.1921 99.8783 22.0304 100.258 21.7902 100.614C21.555 100.967 21.2427 101.278 20.8533 101.546C20.4689 101.81 20.0673 101.991 19.6486 102.088C19.2298 102.185 18.8174 102.2 18.4114 102.134C18.0053 102.067 17.625 101.921 17.2704 101.694C16.9158 101.467 16.6081 101.164 16.347 100.785ZM17.2756 100.146C17.4404 100.385 17.6323 100.573 17.8511 100.71C18.0783 100.848 18.3216 100.934 18.5809 100.969C18.8453 101 19.1123 100.982 19.3819 100.914C19.6549 100.851 19.9187 100.732 20.1733 100.557C20.4279 100.382 20.6334 100.178 20.7897 99.9458C20.9494 99.7183 21.0593 99.4771 21.1195 99.2225C21.1846 98.9644 21.191 98.7063 21.1385 98.4482C21.0944 98.1917 20.9899 97.9436 20.8251 97.704C20.6637 97.4694 20.4693 97.2831 20.2421 97.1452C20.0199 97.0039 19.7791 96.9158 19.5197 96.881C19.2604 96.8461 18.9959 96.8625 18.7263 96.9303C18.4567 96.9981 18.1921 97.1213 17.9325 97.2999C17.6779 97.4751 17.4682 97.6781 17.3035 97.9091C17.1438 98.1367 17.0339 98.3778 16.9737 98.6324C16.9135 98.8871 16.9072 99.1452 16.9547 99.4067C17.0072 99.6648 17.1142 99.9111 17.2756 100.146Z" fill="#6B30A8"/>
<path d="M18.9086 104.378L23.7042 100.197L25.3826 102.122C25.6853 102.469 25.9009 102.832 26.0297 103.21C26.1624 103.593 26.209 103.978 26.1695 104.366C26.1341 104.759 26.016 105.135 25.8153 105.495C25.6185 105.86 25.342 106.197 24.9858 106.508C24.6295 106.818 24.2552 107.048 23.8627 107.197C23.4788 107.347 23.092 107.415 22.7021 107.401C22.3168 107.384 21.9436 107.283 21.5825 107.099C21.2215 106.916 20.8896 106.65 20.587 106.303L18.9086 104.378ZM20.377 104.665L20.4474 104.483L21.3792 105.552C21.5744 105.776 21.7841 105.943 22.0085 106.053C22.2369 106.167 22.4733 106.226 22.7179 106.23C22.9624 106.234 23.2085 106.184 23.456 106.081C23.7082 105.974 23.9553 105.814 24.1973 105.603C24.4394 105.392 24.6285 105.171 24.7646 104.94C24.9052 104.705 24.9883 104.464 25.0138 104.216C25.0433 103.973 25.0189 103.733 24.9407 103.496C24.8625 103.259 24.7258 103.028 24.5307 102.805L23.581 101.715L23.7751 101.703L20.377 104.665Z" fill="#6B30A8"/>
<path d="M25.8013 111.699C25.4081 111.386 25.1236 111.023 24.9479 110.612C24.776 110.196 24.7171 109.769 24.7713 109.332C24.8341 108.893 25.0147 108.487 25.3131 108.113L27.7613 105.043L28.6922 105.785L26.295 108.791C26.1175 109.014 26.0085 109.253 25.9682 109.507C25.9365 109.761 25.9643 110.008 26.0517 110.248C26.1391 110.488 26.2823 110.688 26.4813 110.846C26.6992 111.02 26.9374 111.125 27.1958 111.16C27.4542 111.196 27.7011 111.168 27.9366 111.077C28.1806 110.985 28.3914 110.827 28.569 110.605L30.9662 107.599L31.8615 108.313L29.4134 111.383C29.1149 111.757 28.7566 112.022 28.3386 112.176C27.9291 112.33 27.5024 112.37 27.0584 112.295C26.6183 112.215 26.1992 112.016 25.8013 111.699Z" fill="#6B30A8"/>
<path d="M33.0379 116.099C32.6054 115.94 32.237 115.721 31.9327 115.442C31.6284 115.163 31.3954 114.839 31.2337 114.47C31.074 114.095 30.9889 113.693 30.9785 113.264C30.9758 112.83 31.0568 112.389 31.2214 111.939C31.3797 111.507 31.6034 111.134 31.8924 110.82C32.1815 110.507 32.5136 110.26 32.8888 110.082C33.264 109.903 33.6618 109.803 34.0822 109.783C34.5026 109.763 34.9262 109.831 35.3529 109.987C35.6431 110.093 35.9092 110.239 36.151 110.424C36.3929 110.61 36.5995 110.821 36.7709 111.058C36.9443 111.289 37.0714 111.532 37.1521 111.788L36.1593 112.305C36.0676 112.097 35.9609 111.913 35.8391 111.752C35.725 111.588 35.592 111.449 35.4401 111.335C35.2959 111.218 35.1356 111.127 34.9592 111.062C34.6975 110.966 34.4322 110.924 34.1635 110.936C33.9005 110.949 33.6514 111.013 33.4161 111.126C33.1865 111.242 32.9785 111.405 32.7922 111.614C32.608 111.818 32.4617 112.068 32.3534 112.363C32.243 112.665 32.1885 112.955 32.19 113.233C32.1971 113.513 32.2537 113.772 32.3599 114.011C32.4717 114.252 32.6294 114.465 32.8329 114.649C33.0443 114.83 33.295 114.973 33.5852 115.079C33.773 115.148 33.9645 115.189 34.1596 115.203C34.3547 115.216 34.5429 115.204 34.7242 115.167C34.9133 115.127 35.0933 115.067 35.2643 114.988L35.4887 116.067C35.2959 116.17 35.0628 116.243 34.7893 116.285C34.5159 116.327 34.2234 116.333 33.9118 116.302C33.608 116.269 33.3167 116.201 33.0379 116.099Z" fill="#6B30A8"/>
<path d="M37.3524 118.838L39.5257 114.035L37.8695 113.286L38.3192 112.292L42.7577 114.3L42.308 115.294L40.6022 114.522L38.4289 119.325L37.3524 118.838Z" fill="#6B30A8"/>
<path d="M46.1098 120.304L46.3748 119.312L53.2507 121.148L52.9857 122.141L46.1098 120.304Z" fill="#6B30A8"/>
<path d="M68.1878 125.097L67.7157 118.752L71.8671 118.443L71.9466 119.513L68.9555 119.735L69.2684 123.941L72.2958 123.716L72.3754 124.785L68.1878 125.097ZM68.5293 122.337L68.4511 121.286L71.5963 121.052L71.6746 122.103L68.5293 122.337Z" fill="#6B30A8"/>
<path d="M79.3679 123.52L76.8655 121.118L73.6891 118.184L75.1319 117.89L77.5826 120.267L80.8107 123.226L79.3679 123.52ZM74.9149 124.428L76.6014 120.55L77.5641 121.087L76.2686 124.152L74.9149 124.428ZM77.843 120.816L76.8946 120.305L78.0976 117.286L79.4514 117.01L77.843 120.816Z" fill="#6B30A8"/>
<path d="M83.3608 122.417L81.2881 116.402L83.7888 115.54C84.1325 115.422 84.4705 115.398 84.8027 115.47C85.1407 115.539 85.4421 115.689 85.7069 115.918C85.9718 116.147 86.1654 116.439 86.2878 116.794C86.4121 117.155 86.4416 117.51 86.3761 117.86C86.3087 118.204 86.1642 118.51 85.9427 118.778C85.7269 119.045 85.4472 119.237 85.1035 119.356L83.7199 119.833L84.478 122.032L83.3608 122.417ZM83.3646 118.801L84.6708 118.351C84.814 118.302 84.9291 118.217 85.016 118.098C85.1087 117.976 85.1667 117.838 85.1901 117.682C85.2191 117.525 85.2051 117.363 85.1478 117.197C85.0906 117.031 85.003 116.897 84.8851 116.797C84.7709 116.689 84.6409 116.618 84.4949 116.585C84.3527 116.545 84.21 116.549 84.0668 116.598L82.7606 117.048L83.3646 118.801Z" fill="#6B30A8"/>
<path d="M90.7733 119.55L87.9802 113.833L89.0419 113.315L91.3561 118.051L93.9939 116.762L94.4727 117.742L90.7733 119.55Z" fill="#6B30A8"/>
<path d="M99.3081 114.833C98.9313 115.087 98.5365 115.255 98.1235 115.336C97.7105 115.417 97.3021 115.419 96.8984 115.34C96.4962 115.254 96.118 115.088 95.7638 114.845C95.4095 114.602 95.1002 114.284 94.8359 113.892C94.5716 113.5 94.3929 113.095 94.2998 112.675C94.2068 112.255 94.197 111.845 94.2704 111.445C94.3455 111.036 94.498 110.655 94.728 110.303C94.958 109.95 95.2614 109.647 95.6381 109.393C96.0199 109.135 96.4173 108.966 96.8303 108.885C97.2432 108.803 97.6508 108.806 98.0529 108.893C98.4551 108.98 98.8333 109.145 99.1875 109.389C99.5384 109.627 99.846 109.942 100.11 110.334C100.371 110.721 100.548 111.124 100.641 111.544C100.734 111.963 100.746 112.376 100.676 112.781C100.606 113.187 100.456 113.566 100.226 113.918C99.9957 114.271 99.6899 114.576 99.3081 114.833ZM98.6778 113.899C98.9189 113.736 99.1086 113.546 99.2469 113.328C99.3869 113.103 99.4754 112.86 99.5127 112.601C99.5465 112.337 99.5308 112.07 99.4654 111.8C99.4051 111.526 99.2885 111.261 99.1157 111.005C98.9429 110.749 98.7409 110.541 98.5098 110.383C98.2837 110.221 98.0436 110.109 97.7895 110.047C97.532 109.979 97.274 109.97 97.0155 110.021C96.7586 110.062 96.5095 110.165 96.2684 110.327C96.0323 110.487 95.8443 110.679 95.7044 110.905C95.5611 111.126 95.4708 111.366 95.4335 111.625C95.3963 111.884 95.4104 112.149 95.4757 112.419C95.541 112.689 95.6618 112.955 95.838 113.216C96.0109 113.472 96.212 113.684 96.4415 113.851C96.6676 114.012 96.9077 114.124 97.1618 114.187C97.4159 114.249 97.6739 114.258 97.9358 114.213C98.1944 114.163 98.4417 114.058 98.6778 113.899Z" fill="#6B30A8"/>
<path d="M104.998 110.423L100.685 105.745L102.717 103.872C102.998 103.613 103.316 103.444 103.67 103.364C104.021 103.28 104.368 103.29 104.711 103.394C105.055 103.489 105.356 103.677 105.615 103.958C105.861 104.225 106.02 104.536 106.091 104.891C106.163 105.237 106.144 105.583 106.036 105.93C105.928 106.269 105.731 106.57 105.446 106.833L104.263 107.923L105.846 109.641L104.998 110.423ZM107.711 107.922L104.575 106.907L105.316 105.914L108.746 106.98L107.711 107.922ZM103.567 107.168L104.757 106.071C104.886 105.952 104.971 105.821 105.011 105.676C105.051 105.524 105.049 105.369 105.004 105.213C104.959 105.057 104.877 104.914 104.758 104.785C104.622 104.638 104.472 104.542 104.306 104.496C104.141 104.451 103.969 104.453 103.791 104.501C103.614 104.55 103.447 104.646 103.291 104.79L102.255 105.744L103.567 107.168Z" fill="#6B30A8"/>
<path d="M110.99 104.468L106.104 100.392L108.771 97.1958L109.594 97.8828L107.673 100.186L110.911 102.888L112.856 100.556L113.68 101.243L110.99 104.468ZM109.245 102.303L108.435 101.627L110.456 99.2053L111.265 99.8806L109.245 102.303Z" fill="#6B30A8"/>
<path d="M121.927 86.5038L118.958 85.3864L119.397 85.4837L115.089 86.6103L115.575 85.3173L118.904 84.4725L118.728 84.8627L116.741 82.221L117.208 80.979L119.837 84.6002L119.306 84.2549L122.343 85.398L121.927 86.5038Z" fill="#6B30A8"/>
<path d="M124.993 76.4431C124.902 76.8885 124.738 77.2849 124.501 77.6323C124.263 77.9797 123.973 78.267 123.63 78.4941C123.282 78.714 122.897 78.8613 122.473 78.936C122.05 79.0108 121.607 79.001 121.144 78.9069C120.681 78.8127 120.269 78.6486 119.908 78.4145C119.548 78.1805 119.253 77.8949 119.025 77.5579C118.792 77.2137 118.634 76.8354 118.551 76.4227C118.468 76.0101 118.472 75.5811 118.562 75.1358C118.654 74.6845 118.819 74.2851 119.056 73.9377C119.294 73.5903 119.586 73.3066 119.934 73.0866C120.282 72.8667 120.667 72.7194 121.09 72.6447C121.508 72.5688 121.948 72.5779 122.411 72.672C122.868 72.765 123.277 72.9285 123.638 73.1625C123.998 73.3966 124.296 73.6828 124.53 74.021C124.764 74.3592 124.923 74.7346 125.006 75.1473C125.089 75.5599 125.085 75.9918 124.993 76.4431ZM123.888 76.2186C123.946 75.9336 123.948 75.665 123.895 75.4129C123.836 75.1537 123.729 74.9186 123.574 74.7078C123.413 74.4958 123.215 74.3163 122.979 74.1694C122.744 74.0165 122.475 73.9093 122.172 73.8477C121.869 73.7862 121.58 73.7799 121.304 73.829C121.03 73.8721 120.78 73.9604 120.555 74.094C120.324 74.2263 120.134 74.401 119.984 74.618C119.83 74.8278 119.725 75.0753 119.667 75.3603C119.61 75.6394 119.611 75.9086 119.669 76.1678C119.722 76.4258 119.826 76.6603 119.981 76.8711C120.136 77.0819 120.331 77.2608 120.567 77.4077C120.803 77.5546 121.076 77.6595 121.385 77.7223C121.687 77.7838 121.979 77.7937 122.26 77.7518C122.534 77.7087 122.784 77.6203 123.009 77.4868C123.234 77.3532 123.424 77.1785 123.579 76.9627C123.729 76.7457 123.832 76.4977 123.888 76.2186Z" fill="#6B30A8"/>
<path d="M126.149 66.7914C126.118 67.2934 125.984 67.7344 125.749 68.1145C125.507 68.4941 125.191 68.7873 124.802 68.9941C124.407 69.1943 123.971 69.2798 123.493 69.2503L119.574 69.0087L119.647 67.8203L123.485 68.0569C123.769 68.0744 124.027 68.0265 124.258 67.9133C124.484 67.7937 124.671 67.6291 124.817 67.4196C124.964 67.2101 125.045 66.9783 125.06 66.7243C125.077 66.4461 125.026 66.191 124.907 65.959C124.788 65.727 124.623 65.5408 124.413 65.4004C124.198 65.2536 123.948 65.1714 123.664 65.1538L119.826 64.9173L119.897 63.7742L123.816 64.0158C124.293 64.0453 124.716 64.1867 125.083 64.44C125.444 64.6868 125.721 65.0136 125.915 65.4201C126.102 65.8263 126.18 66.2834 126.149 66.7914Z" fill="#6B30A8"/>
<path d="M126.118 62.3619L119.765 62.6983L119.618 59.9391C119.598 59.5579 119.671 59.2051 119.835 58.8809C119.994 58.5569 120.223 58.296 120.522 58.0982C120.815 57.8946 121.152 57.7827 121.533 57.7625C121.896 57.7433 122.237 57.8193 122.555 57.9905C122.867 58.156 123.123 58.3913 123.321 58.6963C123.513 58.9956 123.619 59.3389 123.639 59.7262L123.724 61.3327L126.057 61.2092L126.118 62.3619ZM125.923 58.6768L123.14 60.4443L122.849 59.2401L125.858 57.2786L125.923 58.6768ZM122.699 61.387L122.613 59.7714C122.604 59.5959 122.557 59.4467 122.471 59.3238C122.379 59.1952 122.259 59.0984 122.11 59.0335C121.961 58.9686 121.799 58.9408 121.623 58.9501C121.423 58.9606 121.253 59.0151 121.113 59.1136C120.972 59.212 120.864 59.3452 120.788 59.5131C120.712 59.6809 120.68 59.8708 120.691 60.0825L120.765 61.4894L122.699 61.387Z" fill="#6B30A8"/>
<path d="M123.998 48.0718L117.94 50.0155L117.132 47.497C117.021 47.1508 117.005 46.8124 117.083 46.4818C117.16 46.1454 117.315 45.8473 117.55 45.5874C117.785 45.3275 118.081 45.1402 118.439 45.0254C118.802 44.9088 119.158 44.8869 119.506 44.9598C119.848 45.0346 120.151 45.1856 120.415 45.4128C120.677 45.6342 120.864 45.918 120.975 46.2642L121.422 47.6575L123.637 46.9467L123.998 48.0718ZM120.383 47.9907L119.961 46.6753C119.915 46.531 119.833 46.4141 119.715 46.3247C119.595 46.2294 119.458 46.1685 119.303 46.1418C119.146 46.1094 118.984 46.12 118.817 46.1737C118.65 46.2274 118.514 46.3121 118.412 46.4278C118.301 46.5396 118.228 46.6681 118.192 46.8134C118.148 46.9547 118.149 47.0975 118.195 47.2417L118.618 48.5572L120.383 47.9907Z" fill="#6B30A8"/>
<path d="M116.348 37.0543C115.374 37.5242 115.064 38.4304 115.586 39.511L116.553 41.5167L122.284 38.7523L121.849 37.8518L119.279 39.0918L118.959 38.4287L120.752 35.576L120.238 34.5118L118.4 37.437C117.868 36.8156 117.134 36.6751 116.348 37.0543ZM117.882 38.3728L118.427 39.5025L116.97 40.2055L116.425 39.0757C116.216 38.6419 116.283 38.216 116.791 37.9711C117.298 37.7263 117.673 37.9389 117.882 38.3728Z" fill="#6B30A8"/>
<path d="M115.887 30.2526C116.132 30.6357 116.289 31.0347 116.36 31.4497C116.431 31.8646 116.422 32.2729 116.333 32.6745C116.236 33.0743 116.061 33.4482 115.809 33.7961C115.556 34.1441 115.231 34.4452 114.833 34.6994C114.434 34.9537 114.024 35.122 113.602 35.2043C113.18 35.2867 112.77 35.286 112.372 35.2024C111.965 35.117 111.588 34.9548 111.242 34.7159C110.895 34.477 110.6 34.166 110.355 33.783C110.108 33.3948 109.948 32.9932 109.878 32.5783C109.807 32.1634 109.82 31.756 109.917 31.3562C110.014 30.9564 110.189 30.5825 110.441 30.2346C110.689 29.8899 111.011 29.5904 111.41 29.3362C111.803 29.0852 112.211 28.9185 112.633 28.8362C113.055 28.7538 113.467 28.7528 113.871 28.8332C114.274 28.9135 114.649 29.0731 114.996 29.312C115.342 29.5509 115.639 29.8644 115.887 30.2526ZM114.937 30.859C114.781 30.6138 114.595 30.4193 114.381 30.2755C114.159 30.1299 113.919 30.0351 113.661 29.9913C113.398 29.9508 113.13 29.9597 112.859 30.0181C112.584 30.0715 112.316 30.1813 112.055 30.3475C111.795 30.5138 111.582 30.7104 111.418 30.9374C111.251 31.1593 111.133 31.3965 111.064 31.6489C110.99 31.9046 110.974 32.1623 111.018 32.422C111.053 32.6799 111.149 32.9315 111.305 33.1766C111.459 33.4167 111.646 33.6096 111.869 33.7552C112.086 33.9041 112.324 34.0005 112.582 34.0443C112.84 34.0881 113.104 34.0808 113.376 34.0223C113.648 33.9639 113.917 33.8499 114.182 33.6804C114.443 33.5142 114.659 33.3185 114.832 33.0933C114.999 32.8714 115.118 32.6343 115.187 32.3818C115.255 32.1294 115.271 31.8717 115.232 31.6087C115.189 31.3489 115.09 31.099 114.937 30.859Z" fill="#6B30A8"/>
<path d="M113.335 26.9057L108.333 30.8373L106.755 28.8293C106.47 28.4672 106.273 28.0941 106.164 27.7099C106.051 27.3209 106.024 26.9336 106.083 26.548C106.138 26.1576 106.275 25.7879 106.494 25.4386C106.709 25.0847 107.003 24.7616 107.374 24.4696C107.746 24.1775 108.131 23.9669 108.531 23.8379C108.922 23.7078 109.312 23.6596 109.7 23.6932C110.084 23.7306 110.452 23.8502 110.803 24.0519C111.154 24.2537 111.472 24.5356 111.757 24.8976L113.335 26.9057ZM111.883 26.544L111.804 26.7221L110.927 25.6074C110.744 25.3739 110.543 25.1967 110.324 25.0755C110.102 24.9497 109.869 24.8786 109.625 24.8623C109.381 24.846 109.133 24.8831 108.88 24.9737C108.623 25.068 108.368 25.2144 108.116 25.4128C107.863 25.6113 107.663 25.8225 107.515 26.0465C107.363 26.2742 107.268 26.5109 107.23 26.7566C107.188 26.9976 107.2 27.2385 107.266 27.4795C107.332 27.7204 107.457 27.9576 107.64 28.191L108.533 29.3272L108.339 29.3298L111.883 26.544Z" fill="#6B30A8"/>
<path d="M107.313 18.5164C107.67 18.8711 107.913 19.2624 108.042 19.6906C108.168 20.123 108.18 20.5536 108.078 20.9823C107.968 21.4111 107.744 21.7951 107.406 22.1345L104.637 24.9184L103.793 24.0788L106.504 21.3529C106.705 21.1509 106.84 20.9256 106.908 20.6769C106.967 20.4283 106.966 20.1798 106.906 19.9314C106.845 19.6831 106.724 19.4692 106.544 19.2897C106.346 19.0931 106.121 18.9631 105.868 18.8995C105.615 18.8359 105.367 18.8365 105.122 18.9015C104.87 18.9664 104.643 19.0998 104.442 19.3018L101.731 22.0277L100.919 21.2201L103.688 18.4361C104.026 18.0968 104.411 17.8729 104.843 17.7646C105.267 17.6564 105.695 17.6638 106.129 17.7869C106.557 17.9143 106.952 18.1574 107.313 18.5164Z" fill="#6B30A8"/>
<path d="M101.357 13.2388C101.729 13.51 102.023 13.8217 102.239 14.1738C102.454 14.526 102.589 14.9017 102.643 15.3009C102.694 15.705 102.665 16.1151 102.557 16.5311C102.44 16.9484 102.241 17.3505 101.959 17.7373C101.687 18.1095 101.37 18.4066 101.006 18.6285C100.641 18.8505 100.254 18.9958 99.8444 19.0645C99.4345 19.1331 99.0247 19.1194 98.6149 19.0232C98.2051 18.927 97.8166 18.7451 97.4493 18.4775C97.1996 18.2954 96.984 18.0821 96.8024 17.8373C96.6209 17.5926 96.4804 17.3327 96.3808 17.0577C96.2777 16.7877 96.2225 16.5188 96.2152 16.251L97.312 16.0269C97.343 16.2519 97.3949 16.4584 97.4678 16.6465C97.5322 16.8359 97.6218 17.0061 97.7366 17.1573C97.8429 17.3097 97.972 17.4413 98.1238 17.5519C98.3491 17.7161 98.5924 17.8297 98.8539 17.8927C99.1104 17.9522 99.3675 17.9596 99.625 17.9149C99.8777 17.8665 100.122 17.7674 100.359 17.6175C100.592 17.4725 100.802 17.2727 100.987 17.018C101.176 16.7585 101.308 16.4949 101.383 16.2272C101.454 15.956 101.471 15.6909 101.434 15.4321C101.393 15.1696 101.3 14.9218 101.155 14.6887C101.002 14.4569 100.8 14.25 100.55 14.068C100.389 13.9502 100.216 13.8581 100.032 13.7915C99.848 13.725 99.6638 13.6845 99.4794 13.67C99.2865 13.6569 99.0969 13.665 98.9107 13.6942L98.9919 12.595C99.2058 12.5484 99.4499 12.5427 99.7243 12.5777C99.9987 12.6127 100.282 12.6876 100.573 12.8024C100.856 12.9184 101.117 13.0639 101.357 13.2388Z" fill="#6B30A8"/>
<path d="M95.5421 9.70031L93.0777 14.3605L94.6846 15.2103L94.1747 16.1745L89.8681 13.8969L90.378 12.9328L92.0331 13.8081L94.4976 9.14793L95.5421 9.70031Z" fill="#6B30A8"/>
<path d="M83.2062 8.56071L82.9533 9.55614L76.0557 7.80336L76.3087 6.80792L83.2062 8.56071Z" fill="#6B30A8"/>
</g>
</svg>
