<?xml version="1.0" encoding="UTF-8"?><svg id="a" xmlns="http://www.w3.org/2000/svg" viewBox="0 0 400.68 466.67"><g id="b"><g id="c"><g><path d="M187.35,233.33L10.68,56.67C-2.41,45.07-3.63,25.06,7.96,11.97c1.79-2.02,3.82-3.8,6.06-5.3C27.82-3.33,46.83-1.92,59.01,10l198.33,200c12.89,11.82,13.75,31.86,1.92,44.74-.61,.67-1.26,1.31-1.92,1.92L59.01,456.67c-12.19,11.92-31.19,13.33-45,3.33-14.52-9.75-18.38-29.42-8.63-43.94,1.5-2.24,3.28-4.27,5.3-6.06L187.35,233.33Z"/><path d="M367.35,0c18.41,0,33.33,14.92,33.33,33.33V433.33c0,18.41-14.92,33.33-33.33,33.33s-33.33-14.92-33.33-33.33V33.33c0-18.41,14.92-33.33,33.33-33.33Z"/></g></g></g></svg>