<svg width="84" height="60" viewBox="0 0 84 60" fill="none" xmlns="http://www.w3.org/2000/svg">
<path d="M43.4095 39.6829C43.4095 41.7775 43.7278 43.7986 44.3202 45.6993C46.881 53.9185 54.5512 59.8862 63.6129 59.8862C67.6606 59.8862 71.4286 58.6948 74.5896 56.6454C80.1428 53.0459 83.8164 46.7932 83.8164 39.6827C83.8164 28.9697 75.4792 20.2052 64.9386 19.5227C67.0989 11.646 71.6927 4.82965 77.8225 2.28882e-05C58.6726 0.882591 43.4087 17.2528 43.4087 37.3196C43.4087 37.7677 43.4187 38.2134 43.4333 38.6591C43.4175 38.9961 43.4087 39.3379 43.4087 39.6826L43.4095 39.6829Z" fill="#F5683C"/>
<path d="M0.000686646 39.6829C0.000686646 41.7775 0.319538 43.7986 0.911442 45.6993C3.47162 53.9185 11.1412 59.8862 20.2041 59.8862C24.2524 59.8862 28.0186 58.6948 31.1808 56.6454C36.7335 53.0459 40.4082 46.7932 40.4082 39.6827C40.4082 28.9697 32.071 20.2052 21.5289 19.5227C23.6892 11.646 28.283 4.82965 34.4128 2.28882e-05C15.2629 0.882591 0.000473022 17.2528 0.000473022 37.3196C0.000473022 37.7677 0.0104561 38.2134 0.0251389 38.6591C0.00869751 38.9961 0.000473022 39.3379 0.000473022 39.6826L0.000686646 39.6829Z" fill="#F5683C"/>
</svg>
