<?xml version="1.0" encoding="UTF-8"?><svg id="a" xmlns="http://www.w3.org/2000/svg" viewBox="0 0 666.67 466.67"><g id="b"><g id="c"><path id="d" d="M33.33,400H633.33c18.41,0,33.33,14.92,33.33,33.33,0,17.09-12.87,31.18-29.45,33.11l-3.89,.22H33.33c-18.41,0-33.33-14.92-33.33-33.33,0-17.09,12.87-31.18,29.45-33.11l3.89-.22h0Zm0-200l600-.07c18.41,0,33.34,14.92,33.34,33.33,0,17.09-12.86,31.19-29.44,33.11l-3.89,.22-600,.07c-18.41,0-33.34-14.92-33.34-33.33,0-17.09,12.86-31.19,29.44-33.11l3.89-.22,600-.07-600,.07Zm0-200H633.33c18.41,0,33.33,14.92,33.33,33.33,0,17.09-12.87,31.18-29.45,33.11l-3.89,.22H33.33C14.92,66.67,0,51.74,0,33.33,0,16.24,12.87,2.15,29.45,.22l3.89-.22h0Z" fill="#212121"/></g></g></svg>