<svg width="15" height="16" viewBox="0 0 15 16" fill="none" xmlns="http://www.w3.org/2000/svg">
<path fill-rule="evenodd" clip-rule="evenodd" d="M6.56178 0.000228569C6.12289 0.000228569 5.68463 0.167702 5.3498 0.502527L0.501841 5.35049C-0.16728 6.01961 -0.16728 7.10597 0.501841 7.77444L1.30987 8.58361C1.5327 8.80708 1.89507 8.80708 2.11789 8.58361L8.5825 2.11835C8.80533 1.89552 8.80533 1.53315 8.5825 1.31032L7.77395 0.502298C7.43965 0.167476 7.00086 0 6.56197 0L6.56178 0.000228569ZM6.56178 1.14308C6.70808 1.14308 6.85438 1.19907 6.96573 1.31055L7.36967 1.7145L1.71388 7.37029L1.30993 6.96634C1.0871 6.74351 1.0871 6.38179 1.30993 6.15832L6.1579 1.31035C6.26938 1.19887 6.41554 1.14288 6.56184 1.14288L6.56178 1.14308ZM9.70232 4.57162C9.60513 4.57328 9.50743 4.60019 9.4212 4.65223C9.24812 4.75504 9.14238 4.94139 9.14238 5.14304C9.14238 5.14304 9.12529 5.94075 8.31548 6.34584C7.09955 6.95387 6.60744 7.57273 6.41038 8.01038C5.69725 8.08984 5.14241 8.69442 5.14241 9.42862V10.2858C4.82698 10.2858 4.57098 10.5417 4.57098 10.8572V14.2857C4.57098 15.232 5.33898 16 6.28526 16H13.1423C14.0886 16 14.8566 15.232 14.8566 14.2857V10.8572C14.8566 10.5417 14.6006 10.2858 14.2852 10.2858V9.42862C14.2852 8.71206 13.7561 8.12009 13.0675 8.01779C12.8995 7.32124 12.467 6.67723 11.9527 6.14293C11.0716 5.22865 9.98635 4.64064 9.98635 4.64064C9.89784 4.59268 9.80013 4.56972 9.7023 4.57151L9.70232 4.57162ZM10.08 6.05158C10.3948 6.27211 10.78 6.57503 11.1291 6.93676C11.4307 7.25054 11.7136 7.60817 11.8708 8.00013H7.88781C8.10094 7.80358 8.40375 7.58012 8.82605 7.36876C9.52655 7.01901 9.8906 6.50013 10.0798 6.05168L10.08 6.05158ZM6.57079 9.14301H12.8565C13.0141 9.14301 13.1422 9.27108 13.1422 9.42873V10.2859H6.28508V9.42873C6.28508 9.27108 6.41314 9.14301 6.57079 9.14301ZM5.71365 11.4287H13.7136V14.2858C13.7136 14.6013 13.4576 14.8573 13.1422 14.8573H6.28508C5.96965 14.8573 5.71365 14.6013 5.71365 14.2858V11.4287Z" fill="black"/>
</svg>
