<svg width="25" height="20" viewBox="0 0 25 20" fill="none" xmlns="http://www.w3.org/2000/svg">
<path d="M24.2411 2.89857C23.6341 3.7084 22.9002 4.41482 22.0679 4.99055C22.0679 5.20209 22.0679 5.41363 22.0679 5.63694C22.0746 9.47858 20.5401 13.1622 17.8084 15.8621C15.0766 18.562 11.3763 20.0522 7.53683 19.9986C5.31714 20.0061 3.12587 19.4993 1.13469 18.5178C1.02732 18.4709 0.958076 18.3647 0.958482 18.2475V18.1182C0.958482 17.9494 1.09523 17.8127 1.26391 17.8127C3.44581 17.7407 5.54986 16.9842 7.27839 15.6502C5.30347 15.6104 3.52655 14.4404 2.70879 12.6415C2.66749 12.5433 2.68034 12.4305 2.74273 12.3441C2.80511 12.2577 2.908 12.2101 3.01421 12.2185C3.61443 12.2787 4.22066 12.2229 4.79977 12.0539C2.61962 11.6013 0.981475 9.79139 0.74703 7.5761C0.738704 7.46982 0.786325 7.36694 0.872704 7.30446C0.95907 7.24211 1.07171 7.22917 1.16993 7.2706C1.75498 7.52877 2.38655 7.66472 3.02596 7.67008C1.11563 6.4163 0.290494 4.03145 1.01721 1.86435C1.09223 1.65377 1.27246 1.4982 1.49166 1.45483C1.71085 1.41144 1.93671 1.48665 2.0862 1.6528C4.66407 4.39642 8.2061 6.03133 11.9654 6.21281C11.8692 5.82858 11.8219 5.43369 11.8245 5.03755C11.8597 2.96043 13.1449 1.11008 15.0785 0.352774C17.0119 -0.404521 19.2112 0.0810881 20.6466 1.58228C21.6249 1.39589 22.5708 1.06726 23.4541 0.606814C23.5188 0.566422 23.6008 0.566422 23.6656 0.606814C23.7059 0.671546 23.7059 0.753625 23.6656 0.818357C23.2377 1.79807 22.515 2.61977 21.5981 3.16888C22.401 3.07577 23.1897 2.88637 23.9475 2.60477C24.0113 2.56134 24.0951 2.56134 24.1589 2.60477C24.2124 2.62921 24.2524 2.67597 24.2682 2.73258C24.284 2.7892 24.2741 2.84992 24.2411 2.89857Z" fill="#C4C4C4"/>
</svg>
